<svg width="17" height="18" viewBox="0 0 17 18" fill="none" xmlns="http://www.w3.org/2000/svg">
<path d="M3.03535 14.8054C1.58261 13.284 0.760742 11.2134 0.760742 9.0475C0.760742 6.88163 1.58261 4.81105 3.03535 3.28963C4.48697 1.76938 6.44819 0.922153 8.48543 0.922153C10.5227 0.922153 12.4839 1.76938 13.9355 3.28963C15.3882 4.81105 16.2101 6.88163 16.2101 9.0475C16.2101 11.2134 15.3882 13.284 13.9355 14.8054C12.4839 16.3256 10.5227 17.1729 8.48543 17.1729C6.44819 17.1729 4.48697 16.3256 3.03535 14.8054ZM12.9191 13.6426C14.0882 12.4182 14.7392 10.7647 14.7392 9.0475C14.7392 7.33027 14.0882 5.67679 12.9191 4.45245C11.7489 3.22692 10.1542 2.5316 8.4836 2.5316C6.81303 2.5316 5.21831 3.22692 4.04811 4.45245C2.87903 5.67679 2.22798 7.33027 2.22798 9.0475C2.22798 10.7647 2.87903 12.4182 4.04811 13.6426C5.21831 14.8681 6.81303 15.5634 8.4836 15.5634C10.1542 15.5634 11.7489 14.8681 12.9191 13.6426Z" stroke="#336699" stroke-width="1.5"/>
</svg>
