<svg width="395" height="196" viewBox="0 0 395 196" fill="none" xmlns="http://www.w3.org/2000/svg">
<path d="M341.983 105.438C339.269 104.183 336.571 102.906 333.833 101.568C330.201 99.3406 324.96 98.0679 322.502 94.3406C322.014 95.5658 322.598 97.2619 321.518 97.5882C319.779 98.1371 317.837 95.2438 316.679 95.8769C315.057 96.765 317.038 100.309 315.231 101.177C313.509 101.739 311.478 98.3337 309.365 98.8307C308.492 99.1937 309.086 102.085 308.257 102.294C305.063 102.679 302.182 99.0856 299.085 99.1613C296.965 99.2131 298.827 103.558 297.341 103.556C292.429 103.736 288.273 98.2192 283.923 99.1418C282.243 99.5977 283.387 104.961 281.79 105.87C278.595 107.69 274.063 102.227 270.469 103.736C268.439 104.678 270.938 110.89 268.907 111.456C267.501 111.739 266.056 110.656 264.61 109.667C263.438 108.632 261.407 107.314 260.313 108.82C259.531 109.95 260.625 111.644 260.313 113.15C260.001 113.904 259.219 113.904 258.594 113.714C257.031 113.15 255.469 111.266 253.906 112.396C252.656 113.338 253.906 115.974 252.344 116.35C247.5 117.48 245 111.454 242.501 107.5C241.719 110.7 241.719 114.278 240.938 117.48C239.376 115.408 238.75 112.772 236.719 110.89C235.157 109.572 233.906 111.266 232.969 112.584C231.875 114.466 228.803 118.673 228.803 118.673C228.803 118.673 226.042 111.957 223.751 108.63C222.635 107.009 221.095 104.112 219.376 106.182C216.72 109.382 216.094 114.09 215 118.232C214.218 120.868 212.032 123.88 212.344 125.386C214.532 137.249 224.844 142.709 230.47 153.254C232.658 157.396 231.875 162.48 231.72 167.188C229.376 167 227.658 164.928 225.471 163.988C227.345 169.825 229.378 175.663 230.471 181.877C226.721 178.677 222.816 175.475 218.73 172.86C218.907 175.477 219.378 177.968 219.925 180.44C220.472 182.912 221.097 185.36 221.565 187.901C216.721 184.701 212.346 180.369 208.441 175.663C207.815 182.441 209.066 189.032 209.223 195.81C205.004 192.61 201.254 189.032 197.972 184.135C197.66 183.759 197.19 183.381 196.878 183.571C192.816 187.901 189.378 193.74 184.534 196C185.159 189.222 185.316 182.443 185.784 175.663C181.722 180.559 177.19 185.265 172.034 188.28C172.66 185.739 173.207 183.195 173.713 180.631C174.222 177.923 174.691 175.475 175.159 172.839C170.629 174.911 166.878 179.053 162.66 181.877C164.379 175.851 166.096 169.639 168.909 164.176C166.722 165.494 164.379 166.436 162.191 167.755C161.409 163.236 162.66 158.904 164.691 154.95C170.472 144.593 178.598 137.627 182.66 126.516C178.284 119.926 176.722 111.83 172.971 104.485C172.503 103.731 171.721 103.543 171.097 104.109C168.441 106.558 164.952 117.729 164.952 117.729C164.952 117.729 161.406 115.743 160.468 114.237C159.063 111.977 158.911 111.452 157.192 109.57C156.255 108.44 154.848 108.44 154.067 109.946C152.973 111.828 152.348 114.088 150.631 115.218C149.848 111.64 148.286 108.252 147.662 104.485C146.257 108.064 144.694 112.394 141.256 113.524C138.756 114.278 136.569 112.96 136.412 109.758C136.255 109.004 135.475 108.816 135.006 108.816C133.287 108.816 131.881 110.698 130.162 109.946C128.6 109.382 129.85 107.309 129.694 105.991C129.537 105.615 129.537 105.049 129.073 105.054C126.255 104.297 123.444 109.004 121.099 107.876C119.537 107.121 121.411 101.285 119.694 100.719C116.726 99.5891 112.975 103.731 109.692 103.167C108.131 100.719 109.694 95.0709 105.787 96.201C102.193 97.3311 99.3802 102.415 95.9436 100.343C95.3182 99.9672 96.5689 96.577 95.1615 96.389C92.1934 96.013 89.8488 100.531 86.8807 99.4011C86.5689 99.2131 86.8807 97.8951 86.724 97.1409C86.5672 96.953 86.4122 96.577 86.0986 96.577C83.9109 96.201 82.1917 100.343 80.786 97.7071C80.0039 96.389 80.9428 94.507 81.0978 92.8108C79.2236 93.3747 77.8162 95.4469 75.9419 95.4469C75.0048 95.4469 75.6302 93.7529 75.6284 92.8108C69.2219 97.5191 62.1918 101.095 55.3168 104.673C56.4106 102.225 57.5045 99.5891 58.2849 96.953C52.1919 99.0251 46.0972 100.343 39.8474 101.283C41.5666 98.647 43.1291 96.0109 44.5347 92.9988C39.8474 94.1289 35.1601 94.8808 30.3161 95.6349C31.8785 93.1868 33.5977 90.7386 35.3169 88.2905C30.4728 87.1604 25.6287 88.1025 20.9414 86.5964C22.9724 84.9024 24.6916 82.8302 26.4108 80.7602C20.7864 80.0061 15.317 78.6881 9.84763 77.182C12.3472 75.3 15.0035 73.6038 17.348 71.5338C12.8175 69.0856 7.9734 67.5796 3.2861 65.1315C5.94241 63.2494 8.75549 61.7412 11.4118 59.8592C7.66161 57.2231 4.22495 54.023 0.629783 51.1967C4.37998 49.3147 7.9734 47.2425 11.7236 45.5485C7.81315 40.8445 3.5944 36.5122 0.000976562 31.24C10.4172 30.1099 20.8352 29.2305 31.1591 27.0978C33.7405 26.5641 36.3167 25.9547 38.9295 25.2957C54.1149 21.3069 69.6974 19.3299 84.0485 12.4111C82.2039 11.9163 80.7686 10.434 78.7185 10.434C90.2007 6.47982 101.477 0.797022 113.611 0.16392C115.684 0.0364349 117.76 -0.0197448 119.842 0.00618431C121.923 0.0342742 124.008 0.144473 126.097 0.356227C129.378 0.732199 131.721 4.68639 134.377 7.70065C137.541 11.1363 140.54 14.7166 143.482 18.243C151.721 28.4137 160.158 38.0183 170.627 46.1146C171.564 46.8212 172.524 47.4219 173.513 47.8756C173.844 48.0269 174.177 48.163 174.515 48.2797C177.188 48.9387 180.158 49.5027 182.583 47.5083C182.806 47.3095 182.994 47.087 183.121 46.8277C183.248 46.5684 183.309 46.2702 183.283 45.9245C183.283 45.3605 181.878 45.9245 180.939 45.7365C181.407 44.0425 183.283 42.7244 182.813 40.8402C182.813 40.4642 182.188 40.2763 181.719 40.4642C190.625 30.4837 203.75 30.8618 212.656 40.2763C210.156 41.2183 213.281 43.8545 212.968 45.5485C212.811 45.9245 212.031 45.5485 211.562 45.7365C211.093 45.9245 210.898 46.3955 210.898 46.8666C210.898 47.3376 211.093 47.8087 211.407 47.9966C213.281 49.1267 215.314 49.3147 217.305 48.8437C217.692 48.7637 218.077 48.6643 218.458 48.5433C222.274 47.3354 225.899 44.1138 229.221 41.4063C238.284 34.2521 244.845 25.4016 252.034 16.7067C254.378 13.7248 256.683 10.3368 259.201 7.58397C261.72 4.83116 264.455 2.71145 267.658 2.24041C276.252 0.827273 284.768 1.53384 293.263 2.87567C296.116 3.33591 298.961 3.86314 301.823 4.42278C304.74 4.93271 307.684 5.51612 310.619 6.11465C313.681 6.47982 316.552 7.46729 319.422 7.9621C317.372 8.94957 315.116 10.1855 313.066 11.4215C314.502 12.4089 316.142 13.1501 317.781 13.8934C329.879 17.5991 341.361 22.0481 353.028 26.1838C355.334 26.8277 357.647 27.3852 359.969 27.8757C371.575 30.3324 383.379 31.0973 395.001 32.746C390.782 37.0762 387.032 41.5965 383.125 46.3026C386.719 47.8087 390.157 50.0688 393.75 51.5749C390.625 54.587 387.032 56.8471 383.907 59.8592C386.252 61.9314 389.063 62.6833 391.251 64.9435C387.189 67.0156 382.97 69.0856 378.751 70.5917C380.47 73.2278 383.127 74.3579 385.315 76.4279C380.471 77.558 375.626 79.44 370.627 80.1941C372.347 81.8881 373.752 84.3363 375.471 86.0303C371.096 86.9724 366.877 86.9724 362.503 87.7244C363.909 90.1725 365.628 92.2425 366.565 95.0688C362.035 94.6928 357.659 93.9387 353.284 92.9966C354.378 95.8207 355.783 98.2689 356.877 101.093C351.096 100.717 345.472 99.3989 339.91 98.15C340.638 100.663 341.269 102.884 341.983 105.438ZM181.433 51.6807C178.439 49.883 175.94 53.2711 174.325 55.9763C174.098 56.4128 173.884 56.8601 173.68 57.3138C171.646 61.8557 170.625 67.0437 173.752 70.4059C180.315 77.9383 189.416 87.8713 196.877 87.3527C203.125 86.9184 217.033 77.9383 221.095 66.6397C222.098 63.7831 221.665 60.7365 220.571 57.8324C220.414 57.4176 220.243 57.007 220.06 56.5986C218.906 52.8929 215.938 49.6928 213.438 51.953C212.501 52.8951 213.595 55.7192 215 57.0373C214.375 57.4132 213.126 56.8493 213.438 58.1673C213.907 59.8614 215.469 60.9914 215.617 62.867C215.638 63.2149 215.6 63.5347 215.469 63.8156C215.157 64.6626 214.297 64.3341 213.281 63.956C212.943 63.8307 212.586 63.6989 212.227 63.606C211.407 63.2494 210.782 63.4374 210.156 63.8156C209.864 64.0511 209.575 64.2823 209.291 64.5135C207.298 66.1168 204.589 67.1021 202.813 69.0251C201.06 70.9223 200.939 72.854 199.531 75.1142C198.594 76.6202 197.343 78.5044 195.938 77.1863C193.438 74.9262 193.593 70.22 190.782 68.7118C188.282 67.3938 185.938 65.6997 183.438 64.0035C181.876 62.8735 180.002 65.5096 178.751 64.0035C177.969 62.9685 178.321 61.7909 178.81 60.5442C178.974 60.1293 179.153 59.7058 179.329 59.2888C179.531 58.5433 180.313 57.7914 180.002 56.8493C179.69 56.2853 178.908 56.8493 178.439 56.6613C179.376 55.5312 180.627 54.4011 181.13 52.6488C181.24 52.3354 181.339 52.0135 181.433 51.6807ZM87.9137 10.9958C93.4788 16.6116 101.476 13.6471 107.56 11.2162C109.692 10.676 111.789 10.2936 113.78 10.3411C115.773 10.3886 117.657 10.8597 119.377 12.0351C123.752 15.1423 126.642 20.1315 129.338 25.5226C130.686 28.2171 131.986 31.0088 133.398 33.6924C137.816 43.8566 147.034 48.7529 155.316 53.0852C155.473 36.5144 145.628 23.5217 136.232 12.7201C132.811 9.14404 129.025 6.26806 124.689 4.50272C122.463 3.65571 120.159 3.25597 117.805 3.16089C115.452 3.06582 113.052 3.27973 110.634 3.66219C104.346 4.75121 98.3996 7.22096 92.4128 9.35363C90.9253 9.9003 89.4256 10.4513 87.9137 10.9958ZM238.202 52.9923C249.064 47.8108 260.001 39.3363 264.612 25.5442C267.503 19.8484 270.628 14.7642 275.47 12.5991C278.517 11.281 281.915 11.3761 285.496 12.0503C289.546 13.2668 293.758 14.7685 297.818 14.9543C301.878 15.1401 305.801 14.0144 309.255 9.97161C305.787 9.11594 302.385 8.36184 298.994 7.66608C295.603 6.97031 292.218 6.33073 288.809 5.71275C285.46 5.20065 282.126 4.87437 278.806 4.89814C275.491 4.92407 272.19 5.30221 268.909 6.1946C265.099 7.25337 261.886 9.63669 258.958 12.679C252.971 21.4474 243.751 28.2257 240.963 39.3882C240.402 44.0403 239.346 48.4158 238.202 52.9923ZM174.804 77.3506C174.689 77.3743 174.689 77.3743 174.534 77.3743C175.628 81.7045 176.565 85.8488 177.347 90.367C177.659 92.3765 177.943 94.3795 178.228 96.3868C180.315 109.386 183.128 122.755 189.691 133.677C195.629 127.275 195.629 117.106 191.559 109.356C190.721 107.363 189.765 105.427 188.746 103.517C185.69 97.7913 182.081 92.3138 179.474 86.3544C177.922 83.284 176.365 80.2892 174.804 77.3506ZM218.043 77.9642C215.52 82.4759 212.881 86.9681 210.393 91.5597C209.15 93.8566 207.942 96.1772 206.807 98.5368C203.126 106.184 199.533 114.468 199.533 123.319C199.533 127.085 202.032 133.675 204.22 131.981C213.44 124.637 211.564 108.256 214.271 96.026C214.851 92.9145 215.455 89.8657 216.084 86.8601C216.714 83.8544 217.368 80.892 218.043 77.9642ZM197.101 69.6907C196.659 68.2667 196.138 66.899 195.554 65.5658C195.359 65.1228 195.159 64.682 194.95 64.2456C194.532 63.2494 194.063 62.4953 193.628 61.6678C193.396 61.2443 193.159 60.8229 192.917 60.4037C192.191 59.144 191.423 57.9016 190.627 56.6591C190.315 56.0952 192.189 55.717 191.877 54.399C191.721 53.835 191.252 53.2689 190.94 53.2689C188.753 52.5148 187.19 51.1967 185.784 49.3147C185.316 48.5606 185.473 47.4327 186.096 47.4327C189.064 47.6207 191.097 50.6328 192.815 53.0809C193.126 51.0087 194.22 49.6907 195.628 48.3726C193.44 45.9245 191.566 43.4763 188.909 41.7823C187.504 40.8402 184.065 41.2183 184.691 43.6643C184.691 43.8523 185.941 43.4763 185.941 43.8523C185.825 45.1941 185.267 46.4301 184.633 47.6293C184.422 48.0291 184.206 48.4266 184.02 48.8372C183.442 50.4426 182.66 52.3268 183.128 54.0208C183.753 55.5269 185.628 54.3968 186.692 55.2438C186.936 55.4426 187.113 55.7149 187.192 56.093C188.598 63.8134 194.119 68.647 197.087 74.5459C198.103 72.0048 200.16 69.4616 201.722 67.3203C201.984 66.9638 202.241 66.6073 202.496 66.2507C204.067 64.1894 205.161 61.9292 205.901 59.3255C206.049 58.9128 206.208 58.5217 206.375 58.1522C207.035 55.905 209.066 55.3389 210.628 54.3968C211.879 53.6427 211.41 51.1967 210.935 49.6323C210.759 49.224 210.545 48.8393 210.336 48.4569C209.277 46.5489 208.324 44.6518 209.691 42.5342C205.161 38.768 201.722 45.9245 198.286 48.5606C199.848 49.0316 201.085 50.5485 201.454 52.3484C201.527 52.7093 201.567 53.0809 201.567 53.459C201.782 53.1284 202.015 52.7654 202.264 52.3895C204.009 49.749 206.488 46.3501 208.129 47.9966C209.906 49.8095 205.821 51.3329 203.516 53.0723C203.187 53.3208 202.895 53.5736 202.659 53.8329C202.503 54.0208 202.346 54.2088 202.346 54.3968C202.503 55.9029 204.377 56.469 203.597 57.5969C201.722 60.9871 199.221 63.2451 198.122 66.9595C197.958 67.3981 197.791 67.841 197.62 68.2948C197.45 68.7486 197.277 69.2175 197.101 69.6907ZM183.321 129.924C179.376 139.511 172.189 145.347 167.033 154.386C165.628 157.21 164.846 160.222 165.159 163.424C174.379 159.658 179.066 148.55 183.729 138.934C183.654 136.134 183.534 133.273 183.321 129.924ZM229.662 163.744C229.376 159.66 230.001 155.14 227.19 151.752C221.72 144.408 215.784 138.005 211.095 130.287C208.751 142.716 218.282 152.506 224.915 160.695C226.378 161.791 227.981 162.709 229.662 163.744ZM100.699 89.9219C105.313 86.4106 110.469 83.5865 115.423 80.8315C117.812 79.4227 120.106 77.9037 122.216 76.0476C124.308 74.1958 126.212 72.007 127.812 69.2758C129.063 67.2036 128.594 64.3795 126.718 63.2494C125.781 62.6855 124.687 62.6855 123.75 63.4374C117.032 69.6518 111.094 76.994 105.088 84.3125C103.623 86.1189 102.172 88.0031 100.699 89.9219ZM292.819 92.8972C292.971 92.8151 292.971 92.8151 293.126 92.8151C285.313 83.5887 278.282 73.9863 270.001 64.9478C268.595 63.6297 266.408 63.0658 265 64.5718C263.749 66.0779 263.281 68.15 264.063 70.0321C267.031 78.5044 275.157 81.1427 281.353 85.3151C285.05 87.7179 288.891 90.2633 292.819 92.8972ZM145.085 58.5023C140.939 62.8735 136.877 67.3938 134.221 73.2257C133.127 76.0541 132.19 79.6323 132.97 82.4564C133.282 83.5865 135.783 83.5865 136.72 82.8324C141.251 79.0662 144.376 73.606 147.088 68.0269C146.333 64.9651 145.685 61.7996 145.085 58.5023ZM248.172 58.4007C247.502 61.5554 245.159 64.3795 245.471 67.5818C246.253 73.7961 248.284 80.1984 252.657 84.1526C254.22 85.6587 256.564 84.9067 257.188 83.2105C259.532 77.3743 256.251 70.4059 252.643 65.8359C251.22 63.4763 249.74 61.0131 248.172 58.4007ZM140.139 93.0722C141.902 91.7844 143.438 90.2287 144.839 88.5152C146.241 86.8017 147.507 84.9305 148.728 83.0074C151.172 79.1613 153.438 75.1142 156.25 71.7239C148.749 66.4517 142.5 76.0541 139.843 83.5779C138.749 85.8467 136.875 91.3069 139.044 92.8972C139.373 92.8972 139.704 92.9966 140.139 93.0722ZM196.802 117.21C199.063 111.644 201.876 106.56 204.25 101.134C205.1 99.3644 205.952 97.599 206.803 95.8358C208.507 92.3095 210.209 88.7961 211.876 85.2805C205.626 91.8709 198.437 110.512 189.688 96.5791C187.188 92.437 184.687 88.6708 181.407 85.6587C184.064 90.9309 186.563 96.2032 189.178 101.532C190.444 104.174 191.71 106.806 192.98 109.423C194.25 112.037 195.523 114.634 196.802 117.21ZM10.8248 49.2758C22.9533 47.1021 35.0469 44.0425 46.8584 39.816C48.0393 39.3925 49.2168 38.9582 50.3926 38.5131C58.8283 35.1423 67.2345 32.4241 75.4368 28.4699C64.9805 23.5282 53.9093 30.447 43.946 34.278C41.5353 35.3908 39.1246 36.4928 36.7156 37.5904C29.4852 40.8813 22.2496 44.1224 14.9669 47.4003C13.5316 48.0528 12.1591 48.6794 10.8248 49.2758ZM242.347 70.5074C240.158 70.784 238.127 71.16 235.939 71.7261C237.658 75.8683 239.573 79.7749 241.661 83.6124C242.706 85.5312 243.795 87.4305 244.925 89.3363C246.719 91.3091 247.813 96.9594 250.625 95.0774C251.407 92.8626 251.553 90.7213 251.281 88.6384C250.464 82.3894 245.883 76.6699 243.372 71.1621C243.166 70.7494 242.976 70.3497 242.347 70.5074ZM158.336 72.7957C155.576 76.685 152.672 80.4188 149.892 84.2391C148.502 86.1492 147.143 88.0809 145.853 90.0688C144.691 93.3791 140.004 96.3933 142.503 99.7814C146.097 104.49 149.378 96.5813 152.001 93.4828C153.602 91.0411 155.088 88.513 156.579 85.905C157.594 84.1915 158.589 82.4456 159.575 80.6846C159.174 78.163 158.793 75.6716 158.336 72.7957ZM322.155 29.4163C324.69 30.864 327.189 32.182 329.616 33.351C330.854 33.9625 332.099 34.561 333.347 35.1423C349.581 42.7028 366.64 47.6941 383.905 50.4469C366.093 42.3506 348.124 35.1941 330.446 26.8039C329.17 27.2879 327.867 27.7374 326.51 28.1782C325.831 28.3986 325.139 28.6168 324.423 28.8286C323.699 29.0338 322.944 29.2283 322.155 29.4163ZM233.642 73.1889C233.283 75.8683 231.564 78.3143 232.189 80.7624C232.814 82.787 233.535 85.2244 234.398 87.72C236.72 94.131 240.938 105.994 246.408 101.285C248.595 99.4033 245.471 93.0009 242.907 89.1548C241.684 87.2317 240.346 85.3605 239.109 83.4223C237.871 81.4863 236.732 79.4832 235.901 77.3009C235.216 76.026 234.509 74.7706 233.642 73.1889ZM187.082 190.65C190.627 188.282 194.377 184.516 195.002 179.995C195.654 175.287 196.141 170.481 196.253 165.687C196.309 163.29 196.269 160.894 196.11 158.517C196.025 156.357 195.788 154.241 195.433 152.173C195.079 150.103 194.61 148.081 194.063 146.104C193.088 148.079 192.287 150.138 191.621 152.255C189.625 158.604 188.848 165.46 188.2 172.124C187.948 175.164 187.746 178.197 187.514 181.175C187.373 184.593 187.272 187.726 187.082 190.65ZM111.39 92.491C114.456 90.9504 117.783 90.0904 120.944 89.0057C124.104 87.9188 127.112 86.6008 129.533 84.1526C131.721 81.8925 133.127 74.9262 131.721 73.7961C128.753 71.2551 125.902 73.6557 123.097 77.2728C120.293 80.892 117.532 85.7278 114.74 88.0614C113.709 89.3557 112.698 90.7213 111.39 92.491ZM199.96 145.944C198.751 149.302 198.282 153.068 197.817 156.793C197.653 158.669 197.577 160.564 197.566 162.467C197.538 168.178 198.125 173.969 198.751 179.617C199.063 183.947 203.281 187.525 206.72 189.786C206.615 185.14 206.338 180.518 205.901 175.914C205.683 173.612 205.426 171.313 205.129 169.021C204.218 162.294 202.97 155.516 201.388 148.686C201.158 147.549 200.811 146.612 199.96 145.944ZM279.295 94.3233C276.524 90.65 273.81 86.8838 270.989 83.2818C268.167 79.6799 265.237 76.2442 262.034 73.2321C261.408 72.6682 259.689 72.8519 259.689 73.606C259.064 78.1284 258.284 84.1526 261.095 86.6008C265.157 90.367 270.64 90.5636 275.554 92.7935C276.662 93.2429 277.796 93.6967 279.295 94.3233ZM205.269 139.271C211.095 151.752 214.377 167.945 226.096 174.347C224.222 160.6 214.69 151.564 208.759 140.395C207.692 140.093 206.626 139.714 205.269 139.271ZM87.4381 84.9586C88.3509 83.9733 89.2723 83.0117 90.2007 82.0632C91.1848 81.0282 92.1481 80.0515 93.1305 79.0662C101.876 69.0878 114.378 62.6855 119.69 49.1289C120.472 47.0567 118.284 45.9288 116.722 46.3048C114.848 46.8687 113.129 47.8108 112.035 49.695C106.097 60.9936 98.1278 69.09 91.5228 79.064C90.8051 80.1012 90.1119 81.1016 89.3942 82.141C88.7375 83.0787 88.0878 84.0187 87.4381 84.9586ZM308.776 87.7589C308.189 86.8752 307.602 85.9914 307.013 85.112C306.426 84.2326 305.838 83.3553 305.249 82.4802C297.815 71.3458 290.314 60.8013 281.72 50.4448C280.314 48.9387 278.907 46.4906 276.657 47.0718C275.733 47.37 274.981 48.2495 274.805 49.6302C274.615 50.7041 274.756 51.8579 275.098 52.9858C275.78 55.246 277.266 57.4111 278.75 58.9171C286.562 66.4495 294.063 72.8519 301.385 80.5096C303.878 82.9577 306.341 85.3756 308.776 87.7589ZM167.445 174.727C179.064 167.945 183.438 152.316 188.596 139.135C186.877 139.889 185.002 140.453 184.22 142.335C180.47 150.998 174.689 157.4 170.599 165.376C169.293 168.334 168.331 171.508 167.445 174.727ZM175.969 180.942C187.657 174.159 190.939 155.14 190.156 140.829C187.812 147.42 184.687 153.634 181.876 160.036C180.157 163.991 178.751 167.945 177.64 172.314C177.089 175.352 176.683 178.329 175.969 180.942ZM164.301 75.2373C163.752 61.9335 166.72 43.1025 154.22 36.3242C155.626 46.6807 158.127 56.6613 161.407 66.2572C162.369 69.2153 163.334 72.1971 164.301 75.2373ZM227.397 75.8035C232.969 63.8156 237.345 50.6349 239.689 37.0762C231.72 40.8424 228.596 51.7628 229.324 61.3437C228.683 66.1686 228.035 70.9633 227.397 75.8035ZM217.3 180.739C217.099 178.293 216.741 175.903 216.253 173.567C213.596 161.918 207.815 151.94 203.908 140.829C202.034 150.998 205.783 160.788 208.282 170.205C209.221 173.217 212.034 175.287 214.215 177.709C215.237 178.787 216.272 179.771 217.3 180.739ZM71.8051 38.0788C68.466 39.345 65.1861 41.0736 61.9427 42.4262C60.3298 43.2192 58.729 44.0468 57.1387 44.9068C52.3713 47.4845 47.7136 50.3584 43.2388 53.6578C42.0962 54.4811 40.964 55.313 39.837 56.1557C33.0734 61.2118 26.4718 66.6418 19.8423 71.7261C27.186 67.867 35.0765 65.0407 42.5612 61.3717C43.6307 60.8467 44.6967 60.3043 45.8011 59.708C51.4115 55.9201 58.1438 53.2343 63.5957 48.7724C64.9579 47.6574 66.2416 46.4301 67.4086 45.0515C68.5757 43.6708 69.6365 42.1496 70.5596 40.4491C71.0021 39.6388 71.4393 38.8566 71.8051 38.0788ZM327.985 41.0282C333.908 47.9988 340.471 54.023 347.888 58.539C348.999 59.2002 350.126 59.8354 351.262 60.4448C359.22 64.7101 367.736 67.7698 375.94 70.7818C366.565 63.8782 356.865 57.6271 347.165 51.3112C346.194 50.6803 345.224 50.0472 344.256 49.4141C340.316 46.3026 335.94 44.6086 331.77 42.6034C330.57 42.0956 329.306 41.5684 327.985 41.0282ZM94.1425 87.5753C103.439 77.9383 114.378 71.16 122.815 60.0494C123.909 58.9193 123.597 56.8493 123.127 55.1531C122.052 55.6004 121.031 56.1362 120.058 56.7456C115.158 60.0472 111.409 64.7555 107.812 69.8743C107.086 70.905 106.363 71.9422 105.639 72.9772C104.912 74.0122 104.182 75.0407 103.44 76.0541C102.582 77.1842 101.683 78.2667 100.763 79.3233C99.8453 80.3799 98.9047 81.4128 97.9641 82.4413C96.6734 84.118 95.4123 85.8445 94.1425 87.5753ZM334.879 95.2503C332.801 91.2983 330.636 87.2987 328.325 83.4115C327.555 82.115 326.768 80.8315 325.954 79.5589C317.191 67.9577 308.597 50.8229 295.003 48.3748C303.441 60.9914 312.815 72.666 323.044 83.3337C323.913 84.1807 324.785 85.0212 325.662 85.8575C326.536 86.6937 327.412 87.5256 328.288 88.3553C330.518 90.6695 332.638 92.8756 334.879 95.2503ZM300.232 89.7231C292.502 78.5044 283.908 68.8998 275.47 58.1673C274.22 56.4733 272.189 55.7192 270.158 55.9072C270.469 57.7892 269.689 59.8614 270.469 61.1794C276.407 70.972 285.157 75.4901 292.516 82.7265C295.075 85.0407 297.654 87.3786 300.232 89.7231ZM63.7316 93.5627C68.0166 88.8328 72.4739 84.2628 76.7676 79.5221C77.6664 78.5109 78.5547 77.4996 79.4674 76.4258C86.2502 66.4517 95.158 58.5433 100.939 47.8108C89.6886 51.577 81.5646 63.2516 75.0118 74.3385C74.5136 75.1703 74.0311 75.9828 73.5556 76.7931C73.0905 77.5839 72.629 78.3747 72.1709 79.1569C69.1139 84.2131 66.3183 89.0187 63.7316 93.5627ZM179.373 78.9798C185.314 85.2827 188.908 98.2753 196.877 97.5212C204.689 96.7671 208.282 85.4707 213.908 79.0684C208.179 83.6686 203.908 89.2369 197.345 91.3069C193.126 92.437 181.979 81.0282 179.373 78.9798ZM161.411 85.1574C160.158 94.5091 162.501 103.924 163.909 113.15C165.94 108.632 166.722 100.911 172.189 101.099C170.627 95.6392 166.251 92.6271 163.564 88.1284C162.822 87.1388 162.128 86.1297 161.411 85.1574ZM229.992 86.3977C225.469 89.9888 223.126 96.2032 219.688 100.909C225 102.039 225.626 109.382 228.751 113.526C228.907 106.56 229.376 99.4033 229.686 92.4802C229.778 90.3951 229.881 88.3812 229.992 86.3977ZM196.72 124.07C193.907 127.837 191.719 132.733 192.032 137.817C192.344 141.207 195.314 144.784 198.125 143.277C200.313 142.147 201.315 140.095 201.355 137.314C201.407 133.675 199.221 127.649 196.72 124.07ZM160.744 71.4971C159.845 58.1652 150.939 51.765 141.564 47.2447C144.064 51.953 147.345 56.0952 150.683 60.0472C153.945 63.9171 157.347 67.6552 160.744 71.4971ZM50.5406 92.6379C57.4662 86.5748 65.1634 81.0843 71.4915 73.9819C72.4147 72.9361 73.3118 71.8579 74.1931 70.7084C77.1891 66.8298 79.6887 62.1215 82.8135 58.1673C77.8127 60.0494 73.2822 63.0636 69.3804 67.2987C68.553 68.217 67.7622 69.1829 67.0115 70.1682C66.2608 71.1535 65.5484 72.1561 64.8777 73.1457C64.4249 73.8717 63.979 74.5956 63.5296 75.3108C61.7302 78.1716 59.8717 80.8985 57.4244 83.0506C54.9144 86.4711 52.6552 89.6388 50.5406 92.6379ZM231.309 71.2162C238.909 64.1937 245.941 56.0973 252.346 47.6228C247.033 50.6349 241.564 53.2711 236.793 57.2533C235.035 62.0027 233.171 66.6008 231.309 71.2162ZM299.964 33.9755C294.69 25.4037 286.409 16.1773 276.721 17.8713C275.939 25.2158 282.345 30.488 287.346 32.9362C290.628 34.6302 294.221 34.8182 297.689 34.3039C298.447 34.2132 299.201 34.103 299.964 33.9755ZM57.1039 42.3074C53.4373 41.9746 49.6871 40.8445 46.4455 43.2214C45.2175 43.7291 44.0017 44.2585 42.7964 44.8138C33.1518 49.2434 24.1255 55.1185 15.0017 60.9914C22.7669 58.7507 30.8386 57.0632 38.3773 53.8285C39.4538 53.3661 40.5198 52.8713 41.5719 52.3398C46.2522 50.071 50.3142 46.6807 54.6758 43.8113C55.47 43.2948 56.2748 42.7935 57.1039 42.3074ZM347.463 93.392C343.967 87.9253 340.422 82.5558 336.463 77.6336C335.674 76.6505 334.867 75.6781 334.029 74.6993C333.176 73.9841 332.298 73.0723 331.391 72.0589C325.472 65.3238 319.691 56.8493 311.096 55.1552C317.503 62.3095 322.19 71.348 329.06 77.9664C329.884 78.7529 330.723 79.5091 331.577 80.2438C333.284 81.7088 335.041 83.0766 336.823 84.3471C340.72 87.6163 344.157 90.5398 347.463 93.392ZM93.8533 32.2058C96.001 32.5126 98.3421 32.5364 100.697 32.2339C103.054 31.9336 105.416 31.294 107.609 30.2719C111.995 28.2279 115.705 24.6496 117.346 19.1894C117.657 18.0593 117.502 15.9893 116.252 15.6112C115.158 15.0472 113.907 15.4232 112.815 15.9872C110.941 16.9293 109.26 18.1522 107.583 19.4033C103.731 22.2923 99.4273 24.7642 96.3059 29.0792C95.4593 30.1099 94.6476 31.16 93.8533 32.2058ZM130.026 66.4301C129.688 68.5238 130.47 71.16 132.033 70.2179C137.034 67.5818 139.845 61.5576 143.127 56.6613C139.22 54.2131 133.439 55.9072 131.862 61.0908C130.456 62.8346 129.554 64.6172 130.026 66.4301ZM380.646 60.8964C370.314 54.7771 359.845 49.1289 348.908 44.6086C346.721 43.6665 344.533 44.6086 342.345 45.3627C351.876 53.0831 362.97 57.2252 374.184 59.4595C376.433 59.9953 378.572 60.4642 380.646 60.8964ZM249.93 56.7715C252.502 62.1064 254.845 67.4845 259.221 71.1492C260.471 72.2879 261.877 70.2179 262.034 68.3359C262.506 63.2516 260.158 58.701 256.853 55.7538C254.547 56.0887 252.255 56.4171 249.93 56.7715ZM74.7401 60.2265C73.9075 59.6734 72.5018 61.1794 72.6568 59.6734C72.8136 57.6012 74.2193 56.4733 75.3131 55.1552C78.438 51.389 82.5 48.9409 84.6878 44.2348C82.0314 47.625 78.7498 50.071 75.5605 52.988C74.6007 53.8004 73.6462 54.5718 72.6899 55.3259C66.0291 60.555 59.2429 65.0688 53.4669 71.5035C52.488 72.5688 51.5195 73.6384 50.5563 74.7123C46.7016 79.0079 42.9166 83.4028 39.2186 87.921C44.1986 84.6258 48.8737 80.7429 53.5209 76.7866C54.4511 75.9958 55.3795 75.2028 56.3079 74.4098C59.4972 71.6159 62.784 69.0122 66.1458 66.5338C67.8267 65.2957 69.5267 64.0878 71.2512 62.8929C72.3868 62.0589 73.5487 61.1751 74.7401 60.2265ZM357.809 87.5148C357.971 87.5407 357.971 87.3527 358.126 87.3527C353.96 81.8601 349.413 76.8255 344.679 72.0459C343.733 71.0887 342.782 70.1444 341.814 69.1786C339.347 66.6656 336.877 64.1613 334.385 61.6829C333.552 60.8553 332.718 60.0299 331.878 59.2067C326.564 53.8372 320.939 48.7529 315.313 43.6686C319.22 50.259 327.344 53.0831 328.126 61.9335C327.344 61.9335 326.564 60.9914 325.627 61.5576C328.44 64.5697 331.565 66.8298 334.535 69.4379C335.235 70.0018 335.935 70.5614 336.635 71.1189C337.335 71.6764 338.037 72.2317 338.739 72.7849C339.619 73.4374 340.492 74.0748 341.364 74.7166C343.984 76.6418 346.585 78.6168 349.128 80.7192C352.373 83.2365 355.205 85.4556 357.809 87.5148ZM30.586 80.4945C35.876 77.2317 41.2949 74.1202 46.5518 70.6997C47.6039 70.0148 48.649 69.319 49.6923 68.6016C58.1264 62.4284 67.1979 57.236 75.1912 50.2201C76.0796 49.44 76.9557 48.6384 77.8179 47.8043C76.6265 48.1479 75.4403 48.5087 74.2576 48.8955C63.6184 52.37 53.2962 57.8346 44.9911 66.7304C44.1864 67.5688 43.3851 68.4137 42.5804 69.2477C41.7757 70.0839 40.9692 70.9115 40.1575 71.7218C38.9068 73.0398 37.6579 73.9819 36.2122 75.0018C34.2021 76.9703 32.3645 78.7637 30.586 80.4945ZM134.254 42.5299C132.519 45.2633 129.307 48.1501 127.116 51.1578C124.924 54.1656 123.752 57.3203 126.097 60.6155C128.753 64.1937 132.972 57.5774 134.358 53.5822C134.271 50.2568 134.242 46.7542 134.254 42.5299ZM328.382 51.5468C329.055 52.2814 329.725 53.0204 330.398 53.7616C331.068 54.5005 331.741 55.2417 332.416 55.9785C336.468 60.4016 340.629 64.7079 345.322 67.9491C346.278 68.606 347.248 69.2412 348.227 69.8592C354.104 73.5606 360.314 76.6202 366.252 80.0104C360.908 75.0385 355.508 69.9996 349.899 65.3713C348.964 64.5999 348.023 63.8393 347.078 63.0917C341.876 58.9214 336.876 54.7793 330.957 52.8367C330.131 52.437 329.271 52.0049 328.382 51.5468ZM259.62 43.2559C258.874 46.6224 258.618 50.7559 259.35 54.3277C260.081 57.8994 261.802 60.8899 265.028 61.9508C269.17 63.5239 268.843 56.7304 267.566 53.6103C265.026 50.354 262.487 47.0437 259.62 43.2559ZM166.502 70.9914C169.22 66.2637 171.564 61.0973 172.346 55.4794C172.971 51.0671 167.345 51.0195 165.314 47.7503C165.158 51.7218 165.626 55.8748 165.767 59.9327C166.011 63.6794 166.257 67.3419 166.502 70.9914ZM222.919 70.797C221.426 74.9975 220.24 79.3471 219.233 83.7723C218.73 85.9849 218.273 88.2192 217.845 90.4642C216.408 97.5212 215.471 104.678 213.908 111.644C216.408 103.924 218.596 96.2032 221.234 88.4158C221.837 86.5684 222.445 84.7187 223.051 82.8648C223.657 81.0109 224.264 79.1526 224.866 77.2857C224.208 75.1379 223.57 72.9707 222.919 70.797ZM81.2337 81.7801C90.4707 70.784 100.471 60.9914 109.845 50.259C96.5637 51.577 90.0021 68.1479 82.5732 79.4962C82.1098 80.2762 81.6639 81.039 81.2337 81.7801ZM286.162 52.0546C295.782 63.4396 306.407 73.4201 316.564 84.1526C308.595 71.9141 302.033 55.7192 288.074 52.9686C287.439 52.6596 286.805 52.3527 286.162 52.0546ZM228.632 47.8087C226.565 50.6501 221.877 51.3177 221.877 54.9521C221.877 60.1163 224.065 65.4621 226.253 70.4448C226.878 66.9746 227.19 63.3099 227.692 59.5978C228.111 55.8791 228.432 51.9768 228.632 47.8087ZM123.223 96.9314C127.346 95.6392 132.19 96.2032 135.47 93.1911C136.875 92.061 137.657 87.5429 136.407 85.8467C134.376 83.0225 130.782 86.0346 128.955 89.0878C127.152 91.4473 125.339 93.9236 123.223 96.9314ZM266.392 99.1591C263.594 95.0731 261.095 90.7429 257.656 87.3527C256.563 86.4106 253.75 86.2205 253.438 87.5385C252.891 89.2347 252.696 91.7282 253.217 93.755C253.737 95.7818 254.974 97.3354 257.291 97.1517C258.693 97.4326 260.121 97.7265 261.621 98.0528C263.122 98.3812 264.697 98.7421 266.392 99.1591ZM158.876 86.7563C154.377 92.625 147.502 100.345 151.251 109.006C155.158 105.806 156.095 99.9672 158.476 95.5333C159.934 92.6703 159.373 89.7425 158.876 86.7563ZM170.146 71.227C168.751 73.042 167.345 75.3022 167.971 77.7503C168.361 79.5697 168.786 81.3652 169.242 83.1371C169.697 84.911 170.181 86.6634 170.691 88.3985C173.128 95.6371 175.628 102.981 178.596 109.948C177.345 104.863 176.096 99.7792 174.983 94.4335C174.522 92.0178 174.065 89.6215 173.586 87.2252C173.107 84.8289 172.607 82.4348 172.069 80.0429C171.432 77.0632 170.791 74.131 170.146 71.227ZM232.064 87.4586C230.003 96.2032 235.159 104.488 239.846 110.514C242.659 104.3 237.502 98.6513 235.15 93.3034C234.126 91.3415 233.103 89.4054 232.064 87.4586ZM282.955 15.9094C288.283 20.1315 294.221 22.5796 300.487 23.0766C301.265 23.1393 302.039 23.163 302.805 23.1501C305.103 23.1069 307.325 22.7093 309.363 21.8839C306.853 19.0187 303.685 17.8757 300.396 17.2706C298.754 16.9681 297.071 16.7974 295.42 16.6116C294.594 16.5187 293.775 16.4236 292.972 16.3048C290.94 15.8035 288.752 15.6155 286.726 15.5334C285.441 15.4902 284.176 15.568 282.955 15.9094ZM110.995 14.9089C102.911 14.1397 93.6844 14.6345 87.1246 21.0585C94.0955 23.5304 102.296 21.0585 108.514 16.4215C109.349 15.8964 110.174 15.3821 110.995 14.9089ZM120.77 51.5446C120.772 52.0718 120.626 52.7395 120.943 52.7287C122.211 53.0139 123.771 52.4737 124.534 51.4647C127.448 48.0528 132.244 44.3666 131.43 41.0088C130.85 38.5628 129.789 37.7136 128.554 37.8735C124.689 39.3363 121.564 44.0446 121.159 48.8631C121.028 49.749 120.901 50.6371 120.77 51.5446ZM273.168 52.2987C273.189 51.3221 273.129 50.3389 272.995 49.3687C272.345 44.6086 269.689 40.0904 265.941 38.3964C265.08 38.1133 264.336 38.5822 263.594 39.2153C262.852 39.8484 262.11 40.6436 261.25 41.0131C264.537 45.3648 266.914 51.4128 272.021 53.4807C272.988 53.673 273.417 53.539 273.168 52.2987ZM19.8841 31.4128C24.2457 31.6073 28.7327 31.819 33.218 31.7088C35.4597 31.6548 37.7015 31.5187 39.9276 31.2616C46.7312 30.447 53.7021 28.7162 60.0581 25.7516C53.2927 24.2693 46.3201 26.4928 39.5931 27.6012C37.5656 28.0334 35.566 28.4655 33.5629 28.8739C31.5597 29.2823 29.5549 29.6648 27.5308 30.0191C24.9128 30.5204 22.3715 30.9807 19.8841 31.4128ZM374.808 33.243C368.499 32.2425 362.258 30.5636 355.992 29.1613C353.904 28.6924 351.814 28.2559 349.715 27.8843C345.667 26.9897 341.361 26.7413 337.031 26.7218C338.645 27.7266 340.3 28.5844 341.984 29.3147C350.406 32.9729 359.6 33.4699 368.534 33.3186C370.711 33.3467 372.785 33.297 374.808 33.243ZM286.754 40.9461C287.189 41.2205 287.658 41.4085 287.97 41.7866C287.188 33.6903 279.844 28.982 274.22 24.8398C272.814 23.7097 270.938 25.0278 269.376 25.9699C273.594 31.2421 278.125 36.5144 283.589 39.587C284.612 40.1293 285.665 40.5852 286.754 40.9461ZM267.956 28.5304C266.252 37.0783 272.971 44.4227 279.534 45.5528C279.222 38.3986 274.065 34.4422 269.928 30.4275C269.264 29.7836 268.609 29.1548 267.956 28.5304ZM105.74 39.1894C112.97 37.4543 120.627 33.1241 123.284 24.8376C123.595 23.8955 120.939 22.9556 119.69 23.5196C113.752 26.5317 108.753 31.9919 104.501 38.0593C103.972 39.4897 104.259 39.7836 105.74 39.1894ZM125.983 27.5105C121.876 32.37 114.064 36.1362 115.001 44.4206C120.939 43.4785 127.032 37.2663 125.909 29.4833C125.865 29.0252 125.943 28.5152 125.983 27.5105ZM186.769 59.3061C186.864 58.7162 186.84 58.2019 186.727 57.7589C186.614 57.316 186.408 56.9443 186.145 56.6375C185.159 55.3411 183.597 55.3411 182.346 56.0952C181.095 57.0373 180.315 58.3553 180.021 60.0623C179.968 60.4685 179.951 60.8661 179.972 61.2335C179.993 61.6008 180.054 61.9379 180.158 62.2231C180.627 63.7637 183.283 61.9054 185.028 61.9789C186.904 61.6375 186.904 61.6375 186.769 59.3061ZM207.502 60.7408C207.951 61.4193 212.503 64.0057 213.44 61.7456C214.377 59.6734 212.034 57.2274 210.158 56.6613C209.064 56.2853 207.19 56.2853 207.49 58.4309C207.477 58.7183 207.138 60.192 207.502 60.7408ZM131.611 100.86C134.085 101.119 136.772 100.587 139.143 99.6777C140.246 99.1245 140.179 96.0368 139.385 95.2697C138.755 94.6993 137.814 94.5091 137.133 95.2006C135.288 96.9638 133.461 98.8696 131.611 100.86ZM257.602 103.971C255.47 101.854 252.501 95.2632 249.844 98.2753C249.376 99.0294 248.594 102.042 250.349 102.649C252.729 102.984 255.146 103.44 257.602 103.971ZM230.862 112.15C234.533 109.386 233.751 103.736 231.409 100.348C231.252 102.23 231.097 104.302 231.09 106.205C231.01 108.118 230.935 110.058 230.862 112.15ZM159.61 99.9175C156.251 103.169 158.282 109.196 161.407 111.456C161.096 109.384 160.782 107.502 160.425 105.399C160.122 103.498 159.852 101.683 159.61 99.9175ZM250.891 109.952C248.764 104.196 247.848 103.481 244.972 105.062C246.812 106.579 248.656 108.102 250.891 109.952ZM138.981 106.707C141.122 105.121 142.933 103.82 144.87 102.465C141.197 101.045 140.73 101.374 138.981 106.707Z" fill="black"/>
</svg>
