<svg width="92" height="81" viewBox="0 0 92 81" fill="none" xmlns="http://www.w3.org/2000/svg">
<path d="M47.8451 58.574C47.8451 60.1831 48.6412 69.6538 46.0687 69.3752C43.5246 69.0991 44.3093 59.9992 44.3559 58.2665C42.6958 61.9024 40.7358 65.4267 38.9198 68.9863C37.3321 72.0982 35.7877 76.4675 33.0638 78.7671C30.3467 81.0609 27.8591 79.9412 24.8937 79.1809C23.3072 78.7741 21.8012 78.3244 20.3682 77.4988C18.8741 76.6378 18.0504 75.44 16.8531 74.2716C15.9143 73.355 15.0491 72.3294 14.0562 71.5121C12.8024 70.4801 12.7653 69.3591 12.0767 67.9454C10.5569 64.824 9.91805 62.1086 10.1004 58.5964C10.2897 54.9574 10.4651 50.9462 12.8678 48.0105C14.9472 45.47 17.7001 44.0095 20.255 42.0898C17.4254 41.8976 12.9571 42.3441 10.6852 40.3666C9.48354 39.3212 9.27666 37.6289 8.55605 36.276C7.8826 35.0115 7.59021 33.6228 7.1884 32.2424C6.72623 30.6551 6.92745 28.9332 6.42566 27.3261C6.18294 26.5484 5.71636 25.8573 5.48434 25.0854C5.25922 24.3379 5.34411 23.5506 5.22024 22.7883C4.93476 21.0351 3.72494 19.6656 3.26151 17.979C2.78802 16.2578 2.15041 14.7057 1.63101 12.957C1.18393 11.4504 0.591597 9.89957 0.656364 8.31354C0.720502 6.748 0.223117 4.86283 0.827399 3.41259C2.27994 -0.0746275 6.50237 0.486505 9.34898 1.60621C13.0155 3.04811 16.3897 4.98582 19.6821 7.14067C22.9972 9.31025 25.4458 12.1127 28.1257 14.994C31.2402 18.3428 34.1264 21.8288 36.9611 25.421C38.3948 27.2377 39.8391 29.0498 41.2389 30.8934C41.5476 31.3001 44.4231 35.1582 44.1798 35.4433C44.5772 34.977 44.3565 33.8054 44.3389 33.2936C44.315 32.6107 44.5791 32.0752 44.4275 31.4571C43.3988 27.2665 42.8951 27.0128 42.3475 25.4121C42.2324 25.0758 41.1835 24.0605 42.2525 23.9638C42.8172 23.9125 43.0825 25.7022 43.2762 26.1551C43.7711 27.3101 44.5571 30.6327 45.8593 30.9126C47.5464 31.2758 48.1344 27.4503 48.599 26.264C48.7814 25.7983 48.9801 24.0643 49.3612 23.869C50.4389 23.3155 49.9654 24.6703 49.8026 25.0764C49.1209 26.7771 47.752 29.7083 47.7288 31.5871C47.72 32.3212 47.9941 32.4179 47.9394 33.2506C47.925 33.4678 47.637 35.3587 48.0784 35.3972C49.5473 31.9618 52.0594 29.1267 54.2941 26.1878C56.5861 23.1739 59.0045 20.2709 61.4764 17.4057C66.4817 11.6035 71.9032 6.33036 78.8025 2.86748C81.6868 1.4198 85.503 -0.655618 88.7628 0.654332C90.243 1.24941 91.1189 2.28136 91.3465 3.86675C91.4427 4.53422 91.356 5.11265 91.2981 5.76474C91.2132 6.71277 91.4748 7.566 91.4214 8.49418C91.3245 10.1744 90.5781 12.0627 90.1405 13.6943C89.921 14.5123 89.4997 15.0689 89.1847 15.8075C88.8539 16.5838 88.7986 17.4089 88.4603 18.207C87.8573 19.6278 87.0952 20.957 86.8443 22.5097C86.7034 23.3783 86.738 24.1393 86.4362 24.972C86.1419 25.7849 85.7206 26.5279 85.4886 27.3748C84.9629 29.2971 84.9667 31.2751 84.4693 33.2096C83.9933 35.0615 83.2777 37.0556 82.3672 38.7447C80.4896 42.2275 75.4975 41.5395 72.161 41.8034C72.8055 42.8648 74.9756 43.6482 75.9772 44.4227C77.3392 45.4764 78.7346 46.6845 79.7564 48.0861C81.7667 50.8443 81.9635 54.9356 82.0572 58.2358C82.11 60.0896 82.2037 62.27 81.6906 64.07C81.2611 65.5747 80.4047 66.8827 79.784 68.2894C79.1068 69.8242 78.9785 70.5243 77.6901 71.6953C77.16 72.177 76.9085 72.8252 76.4143 73.3172C75.8232 73.9052 75.1856 74.2249 74.6329 74.8981C72.5786 77.3995 70.0017 78.1707 66.9866 78.9291C65.1222 79.398 63.94 80.1533 61.9404 79.7459C60.4112 79.4345 59.2296 78.8311 58.2411 77.5968C55.9844 74.7777 54.5532 71.2949 52.9535 68.087C52.0732 66.3209 51.1847 64.5581 50.2459 62.8228C49.9579 62.2893 48.1677 58.5317 47.8451 58.574ZM50.5433 40.0649C53.4176 39.0772 56.1944 39.1983 59.1906 39.0221C62.3208 38.8383 65.4347 38.4469 68.5555 38.149C70.2451 37.9876 71.9372 37.8512 73.628 37.7025C74.9152 37.5898 76.8614 37.7467 78.0454 37.1081C79.9438 36.0832 80.7103 32.9752 78.8742 31.5378C77.885 30.7627 76.2854 30.8882 75.1101 30.8383C73.5582 30.7717 72.0063 30.7185 70.4557 30.6359C67.6632 30.4872 64.3525 29.5879 61.858 31.1124C59.4296 32.596 57.1439 34.3505 54.7286 35.8686C52.6989 37.1446 49.6988 38.5481 48.5531 40.7958C49.1914 40.7958 49.9541 40.2859 50.5433 40.0649ZM42.8241 40.4115C43.0196 40.5191 43.229 40.578 43.4516 40.5889C42.5826 38.5237 39.2437 37.2362 37.4836 36.1229C34.925 34.5042 32.4563 32.0054 29.6034 30.9741C26.8222 29.9684 23.843 30.8453 20.9919 30.9978C18.8766 31.1112 14.3411 30.427 12.8137 32.3231C11.9472 33.3986 11.961 34.2435 12.5043 35.3888C13.0155 36.4669 13.2891 37.2093 14.4436 37.6161C17.1223 38.5596 20.6863 38.2176 23.5015 38.4238C26.716 38.6595 29.8958 39.0496 33.1229 39.0765C36.536 39.1047 39.6725 38.8882 42.8241 40.4115ZM24.8038 17.9425C24.1768 17.9162 21.6113 17.9476 21.4176 18.6657C21.2692 19.214 22.5677 21.0409 22.8255 21.5713C24.036 24.0566 26.5229 26.1897 28.5106 28.0608C30.7479 30.167 33.2229 31.9996 35.7343 33.7567C36.9372 34.5984 38.1577 35.4132 39.3782 36.2292C40.5654 37.0229 41.8268 38.3092 43.1026 38.8863C43.3674 37.4412 41.2691 34.8027 40.5006 33.667C38.9953 31.4417 37.3717 29.2984 35.6375 27.2498C34.0145 25.3326 32.3105 23.4462 30.4668 21.7416C28.7671 20.1716 27.2134 17.9425 24.8038 17.9425ZM70.6789 18.3172C70.5041 17.8797 67.9267 17.7945 67.5424 17.7766C66.1761 17.7125 65.424 17.9668 64.4802 18.9597C62.5277 21.012 60.3256 22.7896 58.4002 24.8785C56.3566 27.0955 54.5086 29.488 52.7661 31.9497C51.5117 33.7215 48.8669 36.6354 48.8669 38.9702C49.8208 38.7127 50.6703 37.5347 51.4878 36.9659C52.5354 36.2369 53.615 35.5579 54.657 34.82C56.9741 33.1782 59.2535 31.4583 61.4537 29.6616C65.1228 26.6657 69.0208 22.8588 70.6789 18.3172ZM65.8459 70.1733C65.7013 68.7404 65.3077 67.1229 64.5814 65.8661C64.0318 64.9162 63.0836 64.5363 62.661 63.4794C61.6876 61.0434 61.8203 58.5304 60.2716 56.2468C59.3856 54.9407 49.3241 44.1543 48.3601 45.0703C48.0444 45.3707 52.1625 51.9832 52.6102 52.7936C54.257 55.7722 55.8951 58.7431 57.4055 61.796C58.9486 64.9136 60.3338 68.1094 61.8744 71.2277C62.3799 72.2506 62.949 73.9052 64.3217 73.2493C65.2599 72.8009 65.856 71.1124 65.8459 70.1733ZM26.3393 70.6473C26.3814 71.5819 27.2831 73.7777 28.5049 73.7585C29.8348 73.7374 30.4177 71.2366 30.824 70.3302C32.1746 67.3125 33.5788 64.3115 35.0149 61.3342C36.47 58.3178 38.0653 55.3737 39.6807 52.4425C41.0163 50.018 42.6071 47.744 43.9063 45.3195C41.4074 45.7435 39.0368 48.5863 37.3723 50.3351C35.5683 52.2292 33.109 54.2291 31.8426 56.5434C31.1962 57.7246 30.7051 59.0397 30.3467 60.3368C30.0203 61.518 30.0486 62.9036 29.4808 63.9964C28.9463 65.0245 27.8824 65.371 27.4007 66.4535C26.9197 67.5335 26.2727 69.4565 26.3393 70.6473ZM49.8686 43.9487C48.9889 44.0339 48.2249 43.7495 48.8719 44.661C49.4655 45.4982 50.8426 46.0632 51.6701 46.6486C53.5836 48.0034 55.1405 49.863 56.871 51.4432C58.687 53.1017 60.5929 54.671 62.6598 56.0028C63.6382 56.6331 67.4997 59.2658 68.6196 57.8021C69.4018 56.7798 66.7558 53.6199 66.11 52.7404C65.4441 51.8334 64.5097 51.1819 63.9771 50.1743C63.503 49.2762 63.4131 48.2558 62.7553 47.4417C61.4028 45.7666 58.7549 45.6077 56.8112 45.1388C54.5136 44.586 52.2323 44.1056 49.8686 43.9487ZM24.4824 58.337C26.2934 58.5791 29.1803 56.4486 30.5749 55.4705C32.6249 54.0337 34.3509 52.169 36.1393 50.428C37.7534 48.8567 39.36 47.2437 41.2452 46.001C41.5709 45.7864 43.7403 44.6386 43.5126 44.2555C43.0894 43.5426 40.9031 44.0678 40.2749 44.185C37.8615 44.636 35.4683 45.2368 33.1015 45.887C31.1566 46.4212 29.5783 47.0695 28.7464 49.0514C28.2943 50.1288 28.0968 51.0237 27.2655 51.8948C26.4456 52.7538 25.5847 53.4264 24.8987 54.4257C24.1001 55.5909 22.159 58.0878 24.4824 58.337ZM49.126 47.7991C49.8617 53.281 51.3815 58.1423 53.4308 63.2539C54.4872 65.8899 55.4889 68.536 56.412 71.2206C56.9496 72.7842 58.2223 75.2376 60.2716 74.4907C62.2743 73.7611 60.9972 71.204 60.3847 69.8754C59.2095 67.3273 57.9915 64.7977 56.7534 62.2803C55.5323 59.7975 54.2797 57.33 52.9705 54.8927C52.3656 53.7666 51.7582 52.6449 51.1841 51.5022C50.6571 50.4529 50.1 48.5306 49.126 47.7991ZM22.4319 29.7589C23.3971 29.7589 26.262 30.2048 27.0216 29.5719C28.0692 28.6982 26.0413 27.1736 25.3992 26.4703C23.8907 24.8183 22.9255 24.2706 20.748 24.0554C18.5761 23.8408 16.3834 23.4705 14.1939 23.5102C12.3245 23.5442 12.6452 24.3878 11.6768 25.658C11.3825 26.0437 10.4997 26.3639 10.6588 26.9084C10.7625 27.2646 11.7944 27.5054 12.0824 27.8238C12.6263 28.4246 12.6043 29.0011 13.4211 29.3823C14.2216 29.7557 15.2333 29.7954 16.0986 29.8486C18.212 29.9793 20.3204 29.6545 22.4319 29.7589ZM70.9537 29.3932C70.9537 29.5764 75.7458 29.504 76.3677 29.4694C78.2869 29.3631 78.8918 28.9281 79.9765 27.4958C80.1953 27.2069 81.1982 26.8047 81.2686 26.6407C81.6038 25.8579 80.7996 26.1308 80.3864 25.7042C79.2709 24.5518 80.2997 23.3238 78.1862 23.2034C76.2256 23.0913 74.1594 23.4513 72.205 23.6153C69.952 23.8036 68.9856 23.9305 67.3519 25.5101C66.7766 26.0667 63.8325 28.4022 64.9738 29.3323C65.4007 29.6801 67.1589 29.3951 67.5965 29.3964C68.7158 29.3989 69.8344 29.3932 70.9537 29.3932ZM42.7096 48.4134C39.6298 52.6264 37.5679 57.8418 35.3293 62.5378C34.1164 65.0815 32.8783 67.6328 31.8307 70.2514C31.2874 71.6094 29.9474 74.7661 32.5645 74.7386C34.7464 74.7155 35.5174 71.9182 36.1097 70.2662C37.0529 67.6367 37.9408 64.9956 38.9462 62.3885C39.8706 59.9909 40.893 57.6381 41.4244 55.1118C41.896 52.873 42.0519 50.6163 42.7096 48.4134ZM70.0357 71.799C70.1287 70.3994 71.5165 69.6525 71.314 68.2939C71.0455 66.4926 69.4622 64.3973 68.7259 62.7351C68.0185 61.1375 67.621 59.62 65.978 58.7706C65.3089 58.4247 61.7417 56.2628 61.3254 56.5665C62.07 58.2275 62.6044 59.8442 63.6313 61.3604C64.4695 62.598 64.9713 63.8509 65.4083 65.2929C65.8239 66.663 65.9874 69.1881 66.8262 70.3667C67.5814 71.4288 69 70.787 70.0357 71.799ZM22.2904 71.8842C23.0972 70.7344 24.7101 71.6857 25.4565 70.2796C26.2525 68.7801 26.4619 66.802 26.8864 65.1705C27.3335 63.4525 27.9453 62.1028 28.9564 60.6629C29.2972 60.178 31.3107 57.2461 30.4775 56.8099C30.1801 56.6542 26.9599 58.7194 26.4638 58.9775C24.9069 59.7866 24.3598 60.7692 23.6889 62.3693C22.8991 64.2519 21.9389 66.0884 21.224 67.9999C20.4637 70.0324 22.1848 70.0144 22.2904 71.8842ZM14.487 56.1059C14.4675 57.6881 15.776 56.4717 16.5394 56.111C18.0944 55.3763 19.7475 54.8382 21.3126 54.1163C22.8167 53.4226 24.4592 52.7263 25.8256 51.7847C26.4978 51.3215 28.266 49.7342 27.9585 48.7631C27.5353 47.4256 20.9693 49.9591 19.6721 50.3825C18.395 50.7995 16.8167 51.0448 15.8923 52.1094C14.9655 53.1766 14.6963 54.7588 14.487 56.1059ZM77.6983 55.5999C77.6738 54.3296 77.0909 52.7526 76.2401 51.7866C75.2786 50.6944 73.7745 50.6156 72.4603 50.2198C70.7663 49.7092 69.0761 49.2372 67.3551 48.8227C66.3087 48.5703 64.3349 47.5422 64.3299 49.127C64.3223 51.7911 69.5005 53.3079 71.3373 53.9812C72.8471 54.5346 74.2851 55.1348 75.7327 55.8446C76.5878 56.2635 77.7675 57.1795 77.6983 55.5999ZM77.8083 16.5255C75.0561 16.7145 72.6226 17.4569 70.933 19.7841C70.4758 20.4131 69.1685 22.0876 70.0923 22.714C70.6563 23.0971 73.5903 22.2938 74.3254 22.2016C75.6427 22.0357 77.3518 22.1369 78.5591 21.6052C79.5872 21.153 79.9299 20.0557 80.8775 19.4843C81.3183 19.2185 81.7182 19.524 81.7428 18.9469C81.7541 18.6842 80.7618 18.3108 80.5738 18.1385C79.4558 17.1155 79.5262 16.6658 77.8083 16.5255ZM20.5637 22.9228C21.8496 22.9228 22.4678 23.0683 21.9993 21.5969C21.6484 20.4951 20.7656 19.4145 19.8922 18.6791C18.2321 17.2814 14.4033 15.9811 12.4716 17.3993C12.2314 17.5754 10.1928 19.3575 10.1966 19.3158C10.1601 19.7226 11.9145 20.4022 12.3503 20.8551C14.2933 22.8761 17.8781 22.5942 20.5637 22.9228ZM78.6585 60.3951C78.8012 57.5997 74.858 56.2327 72.8307 55.3391C71.5259 54.7639 70.174 54.2963 68.873 53.7153C67.7984 53.2355 66.8721 52.8166 67.7462 54.2598C68.07 54.7947 68.536 55.2303 68.8491 55.7754C69.1805 56.3519 69.2937 57.0706 69.7068 57.5837C70.4915 58.5586 72.007 59.1492 73.0307 59.8891C73.6777 60.3567 74.304 60.8499 74.8976 61.3848C75.3453 61.7877 75.9879 62.8049 76.562 62.9695C77.897 63.3545 78.5906 61.4546 78.6585 60.3951ZM24.8566 53.2753C23.9046 53.0933 22.2263 54.4641 21.3441 54.8574C19.9274 55.489 18.4786 56.0329 17.1015 56.7535C14.9189 57.895 12.3245 59.8839 14.1851 62.5506C15.0359 63.7696 15.6804 63.3776 16.6834 62.4609C17.7894 61.4501 18.6748 60.2939 19.9123 59.4118C21.1422 58.5356 22.2433 58.239 22.9362 56.8323C23.2902 56.1142 23.5348 55.3558 23.9643 54.6723C24.1756 54.3354 24.9503 53.7198 24.8566 53.2753ZM73.7865 49.6458C76.696 49.7381 73.8865 46.1298 72.7106 45.5084C70.3652 44.2702 67.0973 43.9416 64.5544 44.6936C63.5602 44.9877 62.1882 45.3829 62.8207 46.5096C63.303 47.3686 65.2303 47.7261 66.0679 47.9118C67.2859 48.1821 68.5278 48.3224 69.7408 48.6248C71.0638 48.9553 72.4 49.6593 73.7865 49.6458ZM24.7277 44.5713C22.5143 44.6494 19.7708 45.0082 18.1912 46.7582C17.7366 47.2623 16.6809 48.7824 17.099 49.5139C17.7284 50.6156 19.4803 49.5831 20.3229 49.3249C22.8916 48.537 26.1827 48.4915 28.5055 47.1502C31.9212 45.1779 26.1733 44.5233 24.7277 44.5713ZM22.4263 58.9583C20.6015 59.0486 18.2346 61.5597 17.2436 62.949C16.1256 64.5171 16.457 67.3644 18.344 68.0319C20.7951 68.8986 21.0624 66.2197 21.9251 64.3954C22.5099 63.1579 25.4766 58.9096 22.4263 58.9583ZM72.7942 68.0652C74.5486 67.7122 76.2508 65.7252 75.5842 63.8266C74.968 62.0702 72.5723 59.9691 70.9826 59.1166C70.2928 58.7469 68.9692 58.3139 68.3901 59.2037C67.8701 60.0031 68.9202 61.3707 69.2685 62.0926C69.8414 63.2796 71.3102 68.0793 72.7942 68.0652ZM36.3134 72.323C37.4597 70.6146 38.23 68.5027 39.1827 66.6701C40.2887 64.5421 41.4168 62.4219 42.4286 60.2459C44.2257 56.3794 44.4753 51.6604 44.0113 47.4365C42.8807 48.7337 42.7511 50.8386 42.5279 52.4739C42.2123 54.7876 41.7608 56.9444 40.9377 59.1345C39.3569 63.3423 36.9253 67.8404 36.3134 72.323ZM55.8379 71.981C55.4964 67.6315 52.5303 63.4096 51.169 59.3446C50.5037 57.3582 49.7994 55.3539 49.5278 53.2701C49.2693 51.287 49.2128 48.8938 48.0633 47.1867C48.2274 51.7751 47.8288 56.0182 49.7755 60.3093C50.703 62.354 51.8317 64.3083 52.9007 66.2793C53.8678 68.0639 54.574 70.409 55.8379 71.981ZM32.6054 43.3062C31.8929 43.3062 28.3081 42.7117 27.9252 43.4349C27.2108 44.784 31.3509 45.4713 32.0061 45.4399C33.8517 45.3515 35.7626 44.6475 37.5465 44.1959C39.5361 43.6918 41.6338 43.6322 43.5925 43.0378C42.5638 41.9905 39.8681 42.7803 38.601 42.9699C36.5335 43.2793 34.7031 43.3715 32.6054 43.3062ZM60.2477 45.1914C60.989 45.167 64.9109 44.3234 64.2947 43.1057C63.9721 42.469 60.0163 43.1076 59.3328 43.1384C57.4514 43.2229 55.6586 43.146 53.7999 42.8424C52.1235 42.5689 50.056 42.0609 48.4833 42.9955C50.2616 43.6835 52.4543 43.5656 54.335 43.9128C56.3088 44.2773 58.2424 45.0146 60.2477 45.1914ZM9.73066 11.868C8.78871 11.9295 6.65329 11.9071 6.3917 13.1472C6.10119 14.5238 8.30139 15.4347 9.26723 15.5103C10.4921 15.6063 11.9076 15.1035 12.283 13.7788C12.7269 12.2133 10.9776 11.9077 9.73066 11.868ZM82.0949 11.4766C81.0316 11.3223 79.3627 12.1627 79.7306 13.4464C80.045 14.5443 81.7566 15.361 82.774 15.2893C83.765 15.2194 85.471 14.2234 85.5213 13.0819C85.5879 11.5548 83.1884 11.5151 82.0949 11.4766ZM83.4802 10.5574C84.2492 10.5574 85.9243 10.8502 85.9004 9.66769C85.8747 8.40386 83.5298 7.85618 82.6564 7.85618C81.8075 7.85618 79.9117 8.3872 80.4116 9.67858C80.8354 10.7714 82.6061 10.478 83.4802 10.5574ZM7.86437 10.9802C8.73715 10.9373 10.4978 11.009 11.1694 10.3095C12.3597 9.0694 10.5714 8.37952 9.58667 8.33468C7.5355 8.24051 4.10599 10.6804 7.86437 10.9802ZM32.2557 40.0137C33.985 40.6338 36.0374 40.7459 37.8559 40.8874C39.7278 41.0335 41.6847 41.5984 43.5566 41.5017C42.6027 40.1501 40.5503 39.8901 39.0406 39.7594C37.937 39.6639 36.8184 39.7146 35.7123 39.7178C34.6943 39.7197 33.1348 39.3968 32.2557 40.0137ZM9.15027 6.9043C9.82561 6.94978 11.8258 7.42508 11.4398 6.23491C11.1455 5.32595 9.24334 5.20489 8.57051 5.21578C7.86437 5.22731 5.9987 5.30994 5.75661 6.2157C5.37367 7.65184 8.35924 6.86202 9.15027 6.9043ZM83.2142 4.80646C82.8149 4.83657 80.1576 5.33877 80.5191 6.22466C80.7939 6.89725 82.9991 6.43477 83.5764 6.47064C84.1725 6.50779 86.3198 7.07021 86.3393 5.98317C86.3601 4.86987 83.787 4.8814 83.2142 4.80646ZM21.5843 15.0254C23.7386 15.0145 21.4768 11.6195 20.1311 11.8808C18.1755 12.26 20.4593 14.8761 21.5843 15.0254ZM48.5129 41.3441C49.1876 42.0167 53.2183 40.8624 54.2338 40.8035C55.1971 40.7478 56.068 40.6107 57.0081 40.4038C57.718 40.2475 59.3592 40.2962 59.8893 39.7703C55.9215 39.6825 52.231 39.8542 48.5129 41.3441ZM70.5406 14.6019C71.8473 14.6461 73.7154 11.8981 71.8844 11.6425C70.5708 11.4593 68.3448 14.6596 70.5406 14.6019ZM18.3635 14.4693C15.9219 14.8217 18.8433 17.0476 19.9161 16.9445C20.5788 16.8804 20.7895 16.2937 20.565 15.673C20.2776 14.8787 19.12 14.4918 18.3635 14.4693ZM74.7215 14.9036C74.912 13.9063 71.697 14.3041 71.6624 15.9125C71.6259 17.6241 74.7014 15.7671 74.7215 14.9036ZM13.0948 10.2256C13.0734 11.8514 15.3918 11.8129 15.2019 10.1776C15.0315 8.71133 13.1155 8.61845 13.0948 10.2256ZM77.9875 8.61973C76.7142 8.62613 76.5004 11.1596 77.9108 11.1865C79.2489 11.2121 79.4055 8.61268 77.9875 8.61973ZM78.0888 6.11513C76.8607 6.12986 76.186 8.12393 77.6945 8.18927C78.6843 8.23219 79.4627 6.09847 78.0888 6.11513ZM13.9418 6.38096C12.6615 6.37712 13.3243 8.41795 14.3272 8.44101C15.7232 8.4724 15.1887 6.3848 13.9418 6.38096ZM73.9852 44.8365C75.5597 44.8192 72.6219 42.7867 72.039 43.0813C71.0619 43.5746 73.4199 44.8294 73.9852 44.8365ZM7.39402 17.0905C6.51998 16.9137 6.54387 18.9334 7.6424 18.8354C8.93648 18.7195 8.64723 17.1174 7.39402 17.0905ZM17.7335 45.3073C18.444 45.3047 20.9995 43.727 19.7538 43.5329C19.2791 43.4593 16.7368 44.9877 17.7335 45.3073ZM85.3301 17.177C85.2113 16.2335 83.8053 16.605 83.765 17.4653C83.7028 18.8008 85.3609 18.5183 85.3301 17.177ZM68.2844 42.3107C66.7891 42.3479 67.372 43.3453 68.4769 43.4035C68.8296 43.4221 69.5502 43.3196 69.6615 42.8725C69.8407 42.157 68.768 42.3537 68.2844 42.3107ZM23.6612 42.6727C23.6436 42.3242 21.1869 43.4119 23.4091 43.784C24.4416 43.957 25.354 42.6727 23.6612 42.6727ZM5.40008 2.80534C5.37681 3.67587 6.66523 4.02946 6.88657 3.11537C7.11672 2.16798 5.50572 1.42941 5.40008 2.80534ZM85.1232 2.85146C85.2182 3.75081 87.0927 2.96036 86.4613 1.99247C85.8388 1.03867 85.1138 2.14236 85.1232 2.85146ZM4.84798 5.34773C4.82849 4.26326 3.49982 4.45991 3.50737 5.40795C3.51554 6.43028 4.85239 6.40722 4.84798 5.34773ZM32.5488 76.7083C33.2612 76.725 34.6905 75.7263 33.4266 75.5604C32.5494 75.4451 31.3169 76.3534 32.5488 76.7083ZM58.1594 75.3727C58.3405 75.9499 59.6446 77.4129 60.3049 76.5398C60.9626 75.6706 58.4436 75.5098 58.1594 75.3727ZM3.03765 9.21353C3.01502 10.0373 4.00413 10.6279 4.29589 9.63502C4.56817 8.71005 3.19737 8.04514 3.03765 9.21353ZM14.6592 65.788C15.561 65.797 15.6811 64.5114 14.7699 64.4178C13.8443 64.3224 13.6349 65.829 14.6592 65.788ZM30.5014 76.5975C31.6175 76.5379 31.559 75.2408 30.4523 75.4394C29.594 75.5944 29.4695 76.6885 30.5014 76.5975ZM27.8679 76.2554C28.9677 76.2644 28.088 74.9679 27.5322 74.9365C26.399 74.8725 27.1404 76.3867 27.8679 76.2554ZM88.9583 8.60307C88.7948 7.73703 87.7485 8.03874 87.7523 8.82343C87.7579 9.8163 88.9872 9.51844 88.9583 8.60307ZM78.3321 64.7836C78.3246 63.9566 77.1701 63.5877 77.0682 64.5837C76.9953 65.2948 78.224 65.7143 78.3321 64.7836ZM87.9101 5.46175C88.5898 5.26894 88.6345 4.22547 87.8397 4.11657C86.9443 3.99487 87.0857 5.50467 87.9101 5.46175ZM9.6747 24.9739C9.66149 23.8984 8.35295 23.8523 8.58246 24.9425C8.71828 25.5863 9.69608 25.84 9.6747 24.9739ZM19.1036 70.7472C19.984 70.4955 19.6394 69.3354 18.793 69.5449C17.7674 69.7992 18.5465 70.4808 19.1036 70.7472ZM88.0547 12.5854C88.0994 11.6317 86.882 11.8507 86.9141 12.6982C86.9468 13.5617 88.0818 13.4765 88.0547 12.5854ZM9.56089 20.9576C8.73904 21.1145 9.02577 22.3643 9.78222 22.3118C10.5544 22.2586 10.284 21.0012 9.56089 20.9576ZM69.4358 11.5131C68.5693 11.6624 67.7996 12.5521 67.5657 13.6597C68.3209 13.0575 69.0459 12.572 69.4358 11.5131ZM64.4997 76.0639C65.1461 76.0466 65.739 74.9192 64.9002 74.7456C64.3349 74.6284 63.5539 76.0466 64.4997 76.0639ZM83.6418 24.1226C83.5141 23.2246 82.3766 23.7671 82.4213 24.4608C82.4835 25.4294 83.6436 24.8529 83.6418 24.1226ZM3.99344 13.0518C4.04877 13.8845 5.21835 13.8621 5.21521 13.0268C5.21206 12.2158 4.01356 12.2171 3.99344 13.0518ZM18.6993 9.02072C19.8796 8.96883 18.2881 7.62237 17.7655 7.91831C17.0726 8.31162 18.2214 8.94001 18.6993 9.02072ZM73.0458 70.3975C73.5601 70.402 74.7769 69.6647 73.7978 69.2573C73.0923 68.9633 72.1321 70.3603 73.0458 70.3975ZM8.59504 3.08206C9.4433 2.85146 8.31019 1.92072 7.83858 1.88549C6.65895 1.7971 7.99453 3.04235 8.59504 3.08206ZM71.8768 71.4038C71.3385 71.4038 70.5752 72.7247 71.3002 72.863C71.902 72.9777 72.666 71.6652 71.8768 71.4038ZM29.3695 78.3027C28.7131 78.3456 27.9635 78.9868 28.8627 79.2891C29.5418 79.5172 30.6234 78.3847 29.3695 78.3027ZM24.5711 13.8358C24.485 13.5104 23.123 11.3011 22.6828 11.7393C22.3401 12.0788 24.3756 13.7237 24.5711 13.8358ZM82.9897 21.2183C83.0199 20.4996 82.1641 20.3779 81.9302 20.9999C81.6107 21.848 82.9167 22.2426 82.9897 21.2183ZM15.222 49.9008C14.6347 49.9091 14.0361 51.1396 14.7894 51.31C15.3302 51.4324 15.9445 49.8553 15.222 49.9008ZM77.1028 47.7241C77.7794 47.8414 77.1902 46.0837 76.5463 46.2701C75.8993 46.4565 76.6344 47.7338 77.1028 47.7241ZM14.9957 48.0162C15.5289 48.0239 16.3872 46.8645 15.6823 46.6256C15.1183 46.4341 14.4228 48.07 14.9957 48.0162ZM61.9021 75.3068C61.1148 75.3036 60.7891 76.2977 61.7134 76.4271C62.4648 76.5322 62.5516 75.4009 61.9021 75.3068ZM83.8587 1.57226C83.4173 1.59596 82.1213 2.15581 82.7753 2.60613C83.0746 2.81175 84.8736 1.88357 83.8587 1.57226ZM77.0928 49.5068C76.0181 49.4831 77.3355 51.7225 77.7165 50.8008C77.8951 50.369 77.3914 49.6952 77.0928 49.5068ZM21.2567 72.6849C21.2718 72.1347 20.1896 71.4461 20.1506 72.225C20.1255 72.7221 21.1705 73.5792 21.2567 72.6849ZM79.5602 52.0281C79.6099 52.5841 80.289 53.2919 80.4292 52.4188C80.5424 51.7104 79.6193 51.0544 79.5602 52.0281ZM12.7156 52.488C12.5836 51.663 11.6378 51.8769 11.7001 52.6379C11.763 53.4143 12.6691 53.1491 12.7156 52.488ZM73.2067 8.68699C73.5079 8.66777 74.6146 8.25845 74.4587 7.77162C74.2575 7.14259 72.3138 8.51852 73.2067 8.68699ZM82.6017 31.7812C82.5011 30.821 81.5114 31.4129 81.5975 32.106C81.6925 32.8689 82.6105 32.2482 82.6017 31.7812ZM5.512 19.2345C5.48559 18.6868 4.54301 17.8637 4.57886 18.8783C4.59709 19.3876 5.42774 20.2043 5.512 19.2345ZM10.4708 32.6043C10.4997 31.9272 9.7445 31.1246 9.69859 32.1021C9.67533 32.5909 10.2746 33.3711 10.4708 32.6043ZM8.52398 29.4489C8.46739 28.7071 7.73169 28.5777 7.71219 29.3765C7.69333 30.1125 8.54599 30.1945 8.52398 29.4489ZM6.19614 22.1542C6.1647 22.9433 7.06327 22.5981 7.01296 21.9421C6.94945 21.1075 6.20998 21.4797 6.19614 22.1542ZM81.6415 28.8897C81.5328 29.3791 82.6137 29.3567 82.4653 28.5297C82.315 27.6886 81.6862 28.3676 81.6415 28.8897ZM87.3322 18.5107C87.3241 17.7253 86.5362 18.1532 86.4286 18.6971C86.2633 19.5381 87.2278 19.0865 87.3322 18.5107ZM7.32799 26.0373C7.35818 25.4633 6.38667 24.6504 6.46967 25.4934C6.50426 25.8464 7.23996 26.7227 7.32799 26.0373ZM63.2314 78.9035C63.9136 78.7965 63.4942 78.2322 63.0188 78.1272C61.9693 77.8934 62.5975 78.664 63.2314 78.9035ZM85.7319 21.4925C85.6495 20.7866 84.9346 20.8955 84.9918 21.6084C85.0553 22.3982 85.7929 22.3098 85.7319 21.4925ZM9.68916 28.9685C9.81052 29.4976 10.2765 29.9428 10.4827 29.1914C10.6255 28.6719 9.77845 28.0672 9.68916 28.9685ZM84.2844 28.8461C84.2561 28.1466 83.6254 28.0108 83.5506 28.7776C83.4758 29.5379 84.1995 29.6526 84.2844 28.8461ZM67.3481 76.1843C66.7407 76.1843 66.5345 77.3098 67.2079 77.133C67.5909 77.0324 67.9832 76.1254 67.3481 76.1843ZM72.798 75.0147C72.8445 74.2031 71.7768 74.4952 71.8227 75.0294C71.8737 75.6251 72.6785 75.5149 72.798 75.0147ZM14.9013 70.2623C14.1449 70.3142 14.8542 71.35 15.2453 71.2924C15.9301 71.1924 15.2616 70.3732 14.9013 70.2623ZM77.1915 70.7844C77.5713 70.8401 78.0473 69.9216 77.5625 69.7902C77.111 69.6692 76.4048 70.8203 77.1915 70.7844ZM18.9609 7.64607C19.025 7.71269 20.255 9.11424 20.3726 8.66457C20.5197 8.10535 19.3621 7.62557 18.9609 7.64607ZM26.3154 77.664C25.7482 77.4321 26.0733 78.5256 26.5034 78.5788C27.2379 78.6684 26.8914 77.6845 26.3154 77.664ZM20.4436 75.3792C20.3298 74.9641 19.3269 74.474 19.5375 75.0621C19.6381 75.3433 20.2858 76.1651 20.4436 75.3792ZM31.6163 78.0676C31.0183 78.0759 30.9598 79.0239 31.4131 78.8811C31.9093 78.7242 32.3406 78.2495 31.6163 78.0676ZM70.1904 76.0729C70.0696 75.5444 69.3371 75.6603 69.349 76.2157C69.3654 76.9626 70.0828 76.5309 70.1904 76.0729ZM10.2752 37.2215C10.9669 37.2106 10.5777 36.383 10.0979 36.3036C9.70928 36.2389 9.76588 37.2061 10.2752 37.2215ZM25.1345 77.3405C25.8828 77.4225 25.1012 76.5949 24.9176 76.4854C24.6346 76.3163 24.3623 77.4084 25.1345 77.3405ZM89.9003 2.95459C89.7456 2.30826 89.1834 2.57346 89.0313 3.05068C88.9149 3.41516 89.8336 3.54071 89.9003 2.95459ZM2.52077 3.95707C2.99112 3.88021 2.98735 3.0084 2.45098 3.04171C1.89951 3.07694 1.97245 3.9449 2.52077 3.95707ZM82.022 36.0127C81.8258 36.1646 80.9587 36.6315 81.6975 36.8871C82.2867 37.0908 82.4747 35.9813 82.022 36.0127ZM85.4471 25.0591C85.4477 24.2149 84.7956 25.0899 84.7101 25.4403C84.5485 26.1 85.3779 25.4934 85.4471 25.0591ZM79.6319 66.4228C79.7369 65.6727 78.9993 66.622 78.9339 66.752C78.7295 67.1562 79.4967 67.0345 79.6319 66.4228ZM81.1171 63.3648C81.1014 62.7351 80.2047 63.5326 80.4015 63.9823C80.6713 64.5978 81.058 63.6114 81.1171 63.3648ZM11.5467 57.2909C11.4385 56.5678 10.9751 56.724 10.8254 57.3006C10.6764 57.8764 11.4228 57.7381 11.5467 57.2909ZM63.076 39.7568C63.7878 40.0637 64.1111 40.0086 64.5053 39.541C63.8998 39.3533 63.6866 39.3815 63.076 39.7568ZM11.7089 64.5056C12.156 64.5806 11.7089 63.3174 11.2436 63.5608C10.7506 63.8183 11.5127 64.3621 11.7089 64.5056ZM74.8064 71.7343C74.5329 71.8458 74.0003 72.822 74.4631 72.6785C74.7737 72.5825 75.4667 71.785 74.8064 71.7343ZM66.3351 77.7076C66.1283 77.0094 65.6353 77.6237 65.4982 77.9311C65.2222 78.5506 66.1918 77.9933 66.3351 77.7076ZM22.6426 76.88C23.3418 76.8774 22.5357 76.1568 22.4219 76.0799C22.1521 75.8961 21.8999 76.8153 22.6426 76.88ZM90.4197 6.99462C90.4461 6.08886 89.6223 7.08238 89.7135 7.06957C89.7072 7.07021 90.4788 7.96699 90.4197 6.99462ZM3.26402 14.1804C3.24579 13.4483 2.49059 13.4906 2.67169 13.8922C2.75595 14.0792 3.32502 14.9895 3.26402 14.1804ZM3.50234 2.21346C3.32439 1.2129 2.89303 2.17247 2.8094 2.16222C2.83203 2.16478 3.4841 3.10705 3.50234 2.21346ZM1.80708 10.4485C2.39941 10.3569 2.18876 9.75673 1.81085 9.53957C1.49079 9.35573 1.35497 10.2986 1.80708 10.4485ZM81.334 56.7612C81.3517 55.8516 80.7298 56.8073 80.7379 56.806C80.7694 56.8009 81.2058 57.8367 81.334 56.7612ZM86.3073 14.9607C86.1614 14.0741 85.5873 15.0029 85.5464 15.0049C85.7256 14.9965 86.157 15.8203 86.3073 14.9607ZM66.547 12.9858C67.2079 12.6296 67.3746 12.4298 67.506 11.8757C66.9696 12.0147 66.7847 12.2184 66.547 12.9858ZM25.9369 73.5465C25.1804 73.6804 25.9073 74.2223 25.9029 74.3632C25.9073 74.2319 26.7078 73.7431 25.9369 73.5465ZM1.75174 5.50467C1.04182 5.56552 1.87813 6.34189 1.87247 6.30794C1.87876 6.34637 2.47361 5.44702 1.75174 5.50467ZM28.0119 39.9003C27.4712 39.5044 27.2511 39.4852 26.7229 39.7953C27.1511 40.0252 27.5586 40.1995 28.0119 39.9003ZM4.00979 15.5154C3.26717 15.7377 4.08461 16.2379 4.09908 16.3654C4.09782 16.3558 4.78762 15.5378 4.00979 15.5154ZM13.2922 67.1659C13.235 66.8174 12.5641 66.3767 12.6666 66.8949C12.7326 67.2299 13.2897 67.8935 13.2922 67.1659ZM24.6774 12.2325C24.8384 12.7392 25.0465 13.1946 25.6055 13.3298C25.3816 12.7104 25.337 12.6546 24.6774 12.2325ZM66.5747 73.6061C66.6168 72.6632 65.934 73.7374 65.9711 73.7303C66.1144 73.7022 66.3515 74.4804 66.5747 73.6061ZM90.5052 5.43229C90.2511 4.56048 90.0103 5.45791 89.8343 5.4656C89.9053 5.46239 90.3266 6.31498 90.5052 5.43229ZM88.8753 1.85667C89.5991 1.55817 88.8212 1.47681 88.7772 1.17255C88.7936 1.28657 88.0987 1.72407 88.8753 1.85667ZM13.3249 49.2423C13.1929 48.3391 12.7364 49.3441 12.6458 49.3537C12.8011 49.3377 13.1287 49.9943 13.3249 49.2423ZM89.2237 13.3938C89.2186 12.6598 88.6571 13.5892 88.6012 13.6193C88.6414 13.5969 88.952 14.3598 89.2237 13.3938ZM17.8184 72.8464C18.2554 72.954 17.7574 71.9829 17.3046 72.2301C16.9035 72.4486 17.7071 72.8483 17.8184 72.8464ZM1.83852 8.04066C2.55913 7.91831 1.75112 7.35013 1.74483 7.30081C1.75237 7.3559 1.09213 8.01375 1.83852 8.04066ZM81.1618 59.4291C80.9234 58.54 80.8165 59.4157 80.5895 59.4131C80.6166 59.4138 81.0662 60.3708 81.1618 59.4291ZM83.3123 31.7985C82.6011 32.0054 83.2959 32.4378 83.289 32.5761C83.2915 32.5262 83.9864 31.917 83.3123 31.7985ZM4.41096 7.39497C4.45687 6.76466 3.68092 7.25917 3.64193 7.25277C3.8136 7.27967 4.06323 8.05347 4.41096 7.39497ZM88.1478 15.3207C88.1327 14.4495 87.5649 15.5564 87.5422 15.5653C87.5737 15.5525 88.2295 16.1322 88.1478 15.3207ZM8.72709 32.3827C8.00899 32.5082 8.71766 33.0226 8.7208 33.1264C8.72143 33.1334 9.55271 32.4096 8.72709 32.3827ZM72.9225 7.37063C72.3459 7.40714 72.1315 7.56856 71.9837 8.09895C72.4 8.01696 72.6905 7.77098 72.9225 7.37063ZM87.9044 7.10736C88.7112 6.81846 87.8183 6.79092 87.7781 6.5443C87.7781 6.54494 87.175 7.03754 87.9044 7.10736ZM90.1103 9.70676C90.7624 9.65808 90.1046 8.96499 90.104 8.94769C90.1084 9.09759 89.379 9.65808 90.1103 9.70676ZM6.02825 15.9068C6.71868 15.7364 5.96789 15.4129 5.94399 15.2201C5.96097 15.361 5.33908 15.7748 6.02825 15.9068ZM60.9186 18.9988C61.0676 18.9405 61.9241 18.0828 61.6361 18.1398C61.2877 18.2083 61.006 18.6881 60.9186 18.9988ZM18.7396 38.9952C18.3742 38.7249 18.0825 38.6525 17.6668 38.8312C18.0296 39.1111 18.3239 39.1624 18.7396 38.9952ZM51.8732 30.8293C51.5507 30.9068 51.3708 31.1118 51.3331 31.443C51.3237 31.5378 51.8801 31.2444 51.8732 30.8293ZM79.7356 54.5724C79.6929 53.9004 79.1659 54.712 79.2238 54.6941C79.3388 54.6576 79.5269 55.3347 79.7356 54.5724ZM23.238 73.9693C23.321 74.5983 23.7857 74.016 23.8304 74.0199C23.8423 74.0212 23.2418 73.3332 23.238 73.9693ZM74.4524 38.5801C74.104 38.4648 73.8324 38.3745 73.5337 38.6563C73.8575 38.8709 74.1279 38.9356 74.4524 38.5801ZM2.50002 12.1044C3.24704 11.8731 2.32333 11.4664 2.34534 11.5714C2.37238 11.7015 1.99006 12.0358 2.50002 12.1044Z" fill="black"/>
</svg>
