<svg width="225" height="283" viewBox="0 0 225 283" fill="none" xmlns="http://www.w3.org/2000/svg">
<path d="M225 161.909L207.56 139.204L221.094 145.152L213.062 127.594L206.71 107.553L190.054 13.5467L190.025 13.3825L182.865 0.831968L142.105 39.8679L134.196 36.306L92.5769 36.0231L84.6184 39.4952L44.4138 0L37.0774 12.4651L19.0605 106.44L12.4245 126.407L4.14384 143.874L17.7601 138.08L0 160.585L11.0518 156.829L9.80281 184.469L21.2445 175.478L22.7794 206.284L30.4064 198.292L46.4717 237.395L47.5853 231.414L73.0518 263.934L70.0437 250.928L91.9477 273.655L97.3195 255.991L111.437 283L126.248 255.886L131.46 273.927L153.683 251.452L150.491 264.422L176.418 232.192L177.447 238.186L194.065 199.269L201.577 207.345L203.549 176.559L214.862 185.681L214.004 158.028L225 161.909ZM216.152 140.757L200.995 134.095L201.052 134.17L193.377 130.9L198.523 114.434L216.152 140.757ZM169.999 129.033L168.693 134.243L163.374 154.063L150.308 161.15L149.867 161.61L146.251 169.191L138.85 148.518L143.595 142.037L152.137 138.502L152.68 137.998L162.425 117.887C162.636 117.493 164.795 113.35 164.761 108.519L166.701 110.244L166.513 110.275L169.999 129.033ZM59.0293 109.588L60.9927 107.885C60.8911 112.714 62.9899 116.879 63.1965 117.276L72.6549 137.497L73.1919 138.008L81.6827 141.64L86.3354 148.175L78.6419 168.763L75.1331 161.142L74.6965 160.676L61.7327 153.442L56.6947 133.562L55.4633 128.337L59.2172 109.621L59.0293 109.588ZM125.958 135.524L129.465 156.54L121.288 155.062L121.097 155.044L103.999 154.901L103.8 154.917L95.6048 156.301L99.4101 135.329L99.4148 135.02L96.5795 115.969L112.814 133.463L129.057 116.231L125.956 135.215L125.958 135.524ZM129.818 158.655L130.523 162.876L120.804 159.219L120.076 159.197L113.463 161.232L111.563 161.175L104.952 159.065L104.225 159.079L94.4574 162.625L95.2219 158.413L104.079 156.917L120.98 157.058L129.818 158.655ZM97.274 135.144L93.6916 154.891L83.618 140.741L92.7847 121.305L92.843 121.314L93.3485 120.011L93.4547 119.949L93.4033 119.869L94.5578 116.892L97.274 135.144ZM87.344 99.4612L74.8342 92.9685L80.6975 83.6594L89.2233 77.7069L97.9534 97.5799L94.5916 110.236L87.344 99.4612ZM93.8375 112.879L91.9769 117.677L83.548 104.721L83.576 104.637L66.5933 99.5677C70.4359 98.8689 77.3065 98.3863 85.8895 101.063L93.8375 112.879ZM65.0116 112.116L76.7906 118.997L90.5937 120.989L81.8624 139.503L74.4479 136.332L65.1447 116.443L65.1236 116.401C65.0991 116.355 62.991 112.298 63.1369 107.758L65.0116 112.116ZM73.3086 162.244L82.2558 181.677L69.6492 166.668L63.7299 156.898L73.3086 162.244ZM87.8214 150.262L93.1687 157.773L91.0139 169.647L80.2959 170.398L87.8214 150.262ZM131.397 155.151L128.095 135.366L131.07 117.144L132.183 120.134L132.129 120.214L132.235 120.277L132.723 121.587L132.781 121.579L141.671 141.116L131.397 155.151ZM127.95 97.7962L136.963 78.0231L145.403 84.072L151.133 93.4466L138.531 99.7973L131.133 110.488L127.95 97.7962ZM137.334 150.59L144.573 170.81L133.866 169.937L131.88 158.04L137.334 150.59ZM161.326 157.499L155.27 167.199L142.455 182.061L151.675 162.734L161.326 157.499ZM160.509 116.988L160.487 117.03L150.902 136.812L143.443 139.899L134.975 121.289L148.806 119.453L160.681 112.707L162.616 108.373C162.693 112.9 160.535 116.941 160.509 116.988ZM142.267 105.076L133.639 117.959L131.848 113.142L139.963 101.416C146.89 99.3447 152.639 99.3325 156.265 99.6964C157.409 99.8106 158.417 99.9693 159.276 100.137L142.239 104.992L142.267 105.076ZM156.596 97.703C154.168 97.4523 150.845 97.3591 146.883 97.8738L153.003 94.79L167.676 91.1382L191.301 94.2065L196.523 110.384L163.453 99.1706C163.131 99.0452 160.672 98.1234 156.596 97.703ZM167.543 89.086L153.127 92.6735L147.693 83.7847L165.559 74.6386L188.919 91.8615L167.543 89.086ZM146.317 82.1962L126.786 68.1992L134.608 55.5633L144.711 54.3453L163.922 73.1843L146.317 82.1962ZM135.207 76.7662L125.705 97.6131L129.496 112.731L112.826 130.416L96.1954 112.492L100.198 97.4223L90.9929 76.4689L101.542 69.1033L113.068 62.0204L124.768 69.283L135.207 76.7662ZM79.8057 81.7725L62.3315 72.5609L81.8087 53.9415L91.8929 55.2748L99.5339 67.9973L79.8057 81.7725ZM78.4073 83.3454L72.8475 92.1721L58.483 88.4204L37.0751 90.9507L60.6752 73.9975L78.4073 83.3454ZM58.3254 90.4704L72.9444 94.2886L79.0213 97.4423C75.0654 96.8821 71.7398 96.9387 69.3083 97.1606C65.2275 97.5344 62.7564 98.4274 62.4319 98.5505L29.2077 109.386L34.6612 93.2669L58.3254 90.4704ZM62.8218 100.556L76.4439 104.622L61.7666 104.571L61.8203 104.695L61.63 104.594L33.8966 128.639L28.8423 111.638L62.8218 100.556ZM56.6305 111.668L53.2804 128.37L54.4536 133.347L37.7358 144.272L34.4826 130.871L56.6305 111.668ZM54.9765 135.457L59.7939 154.464L65.4236 163.756L38.9054 145.958L54.9765 135.457ZM68.0173 167.972L70.7091 171.177L74.5109 209.577L55.5286 188.045L53.5524 171.425L43.3948 155.727L39.9034 149.103L68.0173 167.972ZM73.144 174.074L85.6397 188.953L98.9666 206.124L99.821 206.537L109.833 206.612L94.8181 228.912L75.1576 194.062L75.1237 194.078L73.144 174.074ZM80.324 172.418L91.517 171.634C92.0306 172.07 92.6901 172.455 93.4967 172.789C95.2033 174.003 97.197 175.782 97.7152 177.575C98.6923 180.952 98.2452 183.535 98.2417 183.559L99.1487 184.73L107.105 185.762L108.691 188.426L101.519 190.676L87.2576 187.479L80.324 172.418ZM110.464 187.286L109.449 185.579L112.235 185.122L112.248 185.136L115.207 185.656L114.174 187.34H112.338L110.464 187.286ZM123.065 190.842L115.943 188.482L117.548 185.866L125.519 184.925L126.442 183.767C126.437 183.742 126.029 181.153 127.052 177.787C127.596 176.002 129.622 174.243 131.348 173.045C132.156 172.721 132.818 172.345 133.336 171.916L144.515 172.827L137.369 187.807L123.065 190.842ZM138.968 189.302L151.673 174.567L149.409 194.544L149.373 194.525L129.217 229.163L114.285 206.645L124.537 206.723L125.4 206.32L138.968 189.302ZM154.148 171.697L156.886 168.523L185.265 149.976L181.681 156.558L171.302 172.139L169.09 188.735L149.804 210.049L154.148 171.697ZM159.54 164.335L165.298 155.111L170.385 136.158L186.306 146.841L159.54 164.335ZM170.937 134.054L172.181 129.093L169.068 112.351L190.941 131.804L187.499 145.168L170.937 134.054ZM164.17 105.223L163.979 105.32L164.034 105.197L149.312 105.082L163.036 101.172L196.856 112.638L191.56 129.582L164.17 105.223ZM211.03 128.227L211.048 128.284L212.6 131.678L199.146 111.589L194.42 96.9476L204.707 108.275L211.03 128.227ZM203.978 104.373L193.075 92.3673L174.147 78.4135L190.077 85.6539L189.71 23.8398L203.978 104.373ZM187.92 82.4347L166.682 72.7817L164.157 43.0094L182.069 12.6282L187.516 14.6027L187.92 82.4347ZM186.942 12.2355L181.101 10.1189L161.974 42.5635L164.361 70.7051L146.488 53.1783L182.492 4.43605L186.942 12.2355ZM143.188 41.7038L174.532 11.6875L144.503 52.3386L135.968 53.368L143.188 41.7038ZM93.0403 38.0409L133.704 38.3171L140.822 41.5241L125.032 67.0344L113.074 59.6122L101.3 66.847L85.8767 41.1669L93.0403 38.0409ZM83.5106 41.3177L90.5657 53.064L82.0434 51.937L52.5894 10.942L83.5106 41.3177ZM44.7371 3.6063L80.0485 52.7534L61.9276 70.0761L64.7128 41.9656L46.0386 9.29253L40.1147 11.4601L44.7371 3.6063ZM39.3653 13.8961L45.0523 11.8151L62.5241 42.3849L59.5779 72.1272L38.2004 81.5406L39.3653 13.8961ZM37.0541 23.9263L36.0059 84.7309L52.028 77.6759L32.9091 91.41L21.8375 103.29L37.0541 23.9263ZM14.4287 127.121L21.0542 107.185L31.5014 95.9747L26.5661 110.561L12.8319 130.49L14.4287 127.121ZM9.14913 139.533L27.1486 113.415L32.0605 129.936L24.3424 133.118L24.4008 133.045L9.14913 139.533ZM5.95195 156.419L21.7686 136.377L32.5484 131.933L35.8004 145.333L11.807 154.429L5.95195 156.419ZM21.5106 172.643L12.1444 180.005L13.2264 156.064L36.5277 147.231L41.1372 155.977L21.5106 172.643ZM29.9664 195.74L24.6704 201.289L23.3024 173.835L42.2146 157.776L51.2039 171.668L29.9664 195.74ZM45.6931 229.918L31.9998 196.587L51.7326 174.221L53.4217 188.423L45.6931 229.918ZM48.0966 228.671L54.6146 193.675L68.8321 255.151L48.0966 228.671ZM90.9497 269.623L69.1321 246.985L56.4788 192.276L74.993 213.276L95.913 253.301L90.9497 269.623ZM110.437 276.531L76.9423 212.446L75.6303 199.193L94.6546 232.917L111.159 208.402L110.437 276.531ZM100.374 204.525L90.9649 192.401L98.6549 197.287L99.4802 197.436L111.572 194.948L112.92 194.994L125.009 197.628L125.836 197.488L133.59 192.692L124.013 204.704L100.374 204.525ZM111.477 278.521L111.451 278.47H111.505L111.477 278.521ZM112.576 276.51L113.291 208.953L129.337 233.147L148.832 199.648L147.332 212.887L112.576 276.51ZM132.514 269.905L127.697 253.232L149.267 213.747L168.078 192.958L154.652 247.516L132.514 269.905ZM154.836 255.684L169.923 194.377L175.945 229.442L154.836 255.684ZM178.33 230.718L171.19 189.141L173.081 174.956L192.495 197.545L178.33 230.718ZM199.755 202.329L194.539 196.72L173.643 172.409L182.83 158.619L201.512 174.891L199.755 202.329ZM203.32 173.723L183.928 156.833L188.665 148.14L211.839 157.238L212.581 181.189L203.32 173.723ZM189.42 146.253L192.862 132.891L203.578 137.457L219.111 157.677L213.283 155.62L189.42 146.253Z" fill="black"/>
</svg>
