<svg width="129" height="158" viewBox="0 0 129 158" fill="none" xmlns="http://www.w3.org/2000/svg">
<path d="M128.244 90.434L118.322 77.8379L126.022 81.1377L121.452 71.3971L117.839 60.2793L108.363 8.1271L108.347 8.03602L104.273 1.07337L81.0853 22.7293L76.5864 20.7533L52.9096 20.5964L48.3821 22.5226L25.5102 0.611816L21.3366 7.52708L11.087 59.6614L7.31182 70.7387L2.60104 80.4288L10.3472 77.2145L0.243652 89.6998L6.5309 87.6161L5.82036 102.95L12.3294 97.9616L13.2026 115.052L17.5415 110.619L26.6809 132.311L27.3144 128.993L41.802 147.034L40.0908 139.819L52.5517 152.428L55.6077 142.628L63.6387 157.612L72.0649 142.57L75.0298 152.578L87.6721 140.11L85.8565 147.305L100.606 129.425L101.191 132.75L110.645 111.16L114.919 115.641L116.04 98.5616L122.476 103.622L121.988 88.2813L128.244 90.434ZM123.21 78.6995L114.587 75.004L114.62 75.0452L110.254 73.231L113.181 64.0966L123.21 78.6995ZM96.9542 72.1953L96.2111 75.0859L93.185 86.0812L85.7523 90.013L85.5013 90.2684L83.444 94.4741L79.234 83.0055L81.9333 79.4097L86.7929 77.4484L87.1016 77.169L92.6451 66.0118C92.7653 65.7933 93.9938 63.4948 93.9746 60.8147L95.0782 61.7717L94.9713 61.7889L96.9542 72.1953ZM33.8248 61.4079L34.9417 60.4633C34.8839 63.1422 36.0779 65.453 36.1954 65.6733L41.5762 76.8908L41.8817 77.1745L46.712 79.1894L49.3589 82.8147L44.9822 94.2365L42.986 90.0087L42.7377 89.7503L35.3627 85.7366L32.4967 74.708L31.7961 71.8095L33.9317 61.4264L33.8248 61.4079ZM71.8995 75.7967L73.895 87.4554L69.2433 86.6357L69.1344 86.6259L59.4074 86.5465L59.2945 86.5551L54.6322 87.3231L56.797 75.6883L56.7996 75.5166L55.1866 64.9477L64.4223 74.6532L73.6626 65.0936L71.8988 75.625L71.8995 75.7967ZM74.0955 88.629L74.4966 90.9706L68.9677 88.9416L68.5534 88.9293L64.7915 90.0586L63.7104 90.0272L59.9499 88.8561L59.5362 88.8641L53.9794 90.8315L54.4144 88.4949L59.4532 87.6647L69.068 87.7428L74.0955 88.629ZM55.5818 75.5856L53.5438 86.541L47.813 78.6909L53.0278 67.9084L53.061 67.9134L53.3485 67.1903L53.409 67.1558L53.3798 67.1115L54.0365 65.4598L55.5818 75.5856ZM49.9327 55.7899L42.816 52.188L46.1516 47.0236L51.0018 43.7213L55.9682 54.7462L54.0558 61.7673L49.9327 55.7899ZM53.6268 63.2338L52.5683 65.8955L47.7732 58.7082L47.7891 58.6614L38.1278 55.849C40.3139 55.4613 44.2225 55.1936 49.1053 56.6786L53.6268 63.2338ZM37.228 62.8105L43.929 66.6278L51.7814 67.733L46.8143 78.0041L42.5962 76.2447L37.3037 65.2111L37.2918 65.1877C37.2778 65.1619 36.0786 62.9114 36.1616 60.3925L37.228 62.8105ZM41.9481 90.6198L47.0381 101.401L39.8663 93.0741L36.4989 87.6542L41.9481 90.6198ZM50.2043 83.9729L53.2463 88.1398L52.0204 94.727L45.9231 95.1436L50.2043 83.9729ZM74.994 86.685L73.1154 75.7086L74.8081 65.6001L75.4409 67.2586L75.4103 67.3029L75.4708 67.338L75.7484 68.0647L75.7816 68.0604L80.839 78.8989L74.994 86.685ZM73.033 54.8662L78.1602 43.8967L82.9619 47.2525L86.2218 52.4532L79.0527 55.9764L74.8439 61.907L73.033 54.8662ZM78.3714 84.1544L82.4898 95.372L76.3985 94.8876L75.2689 88.2875L78.3714 84.1544ZM92.0203 87.9878L88.5752 93.3688L81.2846 101.614L86.5299 90.8918L92.0203 87.9878ZM91.5554 65.5133L91.5428 65.5367L86.0903 76.5111L81.847 78.2238L77.0293 67.8992L84.8977 66.8807L91.6531 63.1385L92.7541 60.7341C92.7979 63.2455 91.57 65.4874 91.5554 65.5133ZM81.1776 58.9051L76.2696 66.0518L75.2503 63.3797L79.8668 56.8743C83.808 55.7253 87.0784 55.7186 89.1409 55.9204C89.7917 55.9838 90.3655 56.0718 90.8542 56.1647L81.1617 58.8583L81.1776 58.9051ZM89.3295 54.8145C87.9483 54.6755 86.0578 54.6238 83.804 54.9093L87.2856 53.1985L95.6327 51.1726L109.072 52.8748L112.043 61.8498L93.2302 55.6287C93.0469 55.5592 91.6484 55.0478 89.3295 54.8145ZM95.557 50.0341L87.356 52.0243L84.2648 47.0931L94.4281 42.0191L107.718 51.5738L95.557 50.0341ZM83.4819 46.2118L72.371 38.4467L76.8208 31.4367L82.5682 30.761L93.4971 41.2123L83.4819 46.2118ZM77.1615 43.1995L71.7561 54.7647L73.9122 63.1514L64.4289 72.9627L54.9682 63.0191L57.2452 54.6588L52.0085 43.0345L58.0095 38.9483L64.567 35.0189L71.2228 39.048L77.1615 43.1995ZM45.6442 45.9768L35.7034 40.8665L46.7837 30.5369L52.5205 31.2767L56.8674 38.3347L45.6442 45.9768ZM44.8487 46.8494L41.6858 51.7461L33.514 49.6649L21.3353 51.0686L34.7611 41.6634L44.8487 46.8494ZM33.4243 50.8021L41.7409 52.9203L45.198 54.6699C42.9475 54.3591 41.0556 54.3905 39.6724 54.5136C37.3509 54.721 35.9451 55.2164 35.7605 55.2847L16.8596 61.2959L19.962 52.3535L33.4243 50.8021ZM35.9823 56.3974L43.7318 58.6528L35.382 58.6245L35.4125 58.6934L35.3043 58.6374L19.5271 71.9769L16.6517 62.5452L35.9823 56.3974ZM32.4601 62.5618L30.5543 71.8279L31.2217 74.5886L21.7111 80.6497L19.8604 73.215L32.4601 62.5618ZM31.5192 75.7591L34.2597 86.304L37.4624 91.4586L22.3765 81.5851L31.5192 75.7591ZM38.938 93.7978L40.4693 95.5757L42.6321 116.879L31.8333 104.933L30.709 95.7135L24.9304 87.0043L22.9443 83.3298L38.938 93.7978ZM41.8545 97.1831L48.9632 105.437L56.5446 114.963L57.0307 115.192L62.7263 115.234L54.1846 127.605L43 108.271L42.9807 108.281L41.8545 97.1831ZM45.9391 96.2643L52.3067 95.8292C52.5988 96.0711 52.974 96.2846 53.4329 96.4698C54.4037 97.1437 55.5379 98.1302 55.8328 99.1253C56.3886 100.999 56.1342 102.432 56.1323 102.445L56.6482 103.095L61.1744 103.667L62.0768 105.145L57.9969 106.393L49.8835 104.62L45.9391 96.2643ZM63.0855 104.513L62.5078 103.565L64.0929 103.312L64.1002 103.32L65.7836 103.608L65.1959 104.543H64.1513L63.0855 104.513ZM70.254 106.485L66.2026 105.176L67.1157 103.725L71.6498 103.203L72.1751 102.56C72.1724 102.546 71.94 101.11 72.5224 99.2428C72.8318 98.2527 73.984 97.2766 74.9661 96.612C75.4256 96.4323 75.8021 96.2237 76.097 95.9855L82.4566 96.4914L78.3913 104.802L70.254 106.485ZM79.301 105.631L86.5286 97.4563L85.241 108.539L85.2204 108.529L73.7535 127.745L65.259 115.253L71.0914 115.296L71.5821 115.072L79.301 105.631ZM87.937 95.8643L89.4942 94.1036L105.639 83.8141L103.6 87.4653L97.6953 96.1092L96.4369 105.316L85.4654 117.141L87.937 95.8643ZM91.0043 91.7799L94.28 86.6628L97.174 76.148L106.231 82.075L91.0043 91.7799ZM97.4881 74.9812L98.1953 72.2286L96.4243 62.9409L108.868 73.7326L106.91 81.147L97.4881 74.9812ZM93.6379 58.9863L93.5297 59.0405L93.5609 58.9722L85.1859 58.9082L92.9931 56.7389L112.233 63.1003L109.22 72.4999L93.6379 58.9863ZM120.296 71.7485L120.306 71.7799L121.189 73.6631L113.536 62.5181L110.847 54.3955L116.699 60.6793L120.296 71.7485ZM116.285 58.5149L110.082 51.8545L99.3142 44.1133L108.377 48.13L108.167 13.8374L116.285 58.5149ZM107.149 46.3442L95.0669 40.9889L93.6306 24.4722L103.82 7.61755L106.92 8.71296L107.149 46.3442ZM106.593 7.3997L103.27 6.22551L92.3888 24.2248L93.7468 39.8369L83.5788 30.1136L104.062 3.07281L106.593 7.3997ZM81.7016 23.7478L99.5327 7.09569L82.45 29.6477L77.5944 30.2188L81.7016 23.7478ZM53.1732 21.7158L76.3062 21.869L80.3555 23.6481L71.3729 37.8005L64.5704 33.6829L57.8721 37.6965L49.098 23.45L53.1732 21.7158ZM47.7519 23.5337L51.7654 30.0502L46.9172 29.4249L30.1612 6.68214L47.7519 23.5337ZM25.6941 2.61249L45.7823 29.8779L35.4736 39.488L37.058 23.8931L26.4345 5.76704L23.0645 6.96953L25.6941 2.61249ZM22.6381 8.32095L25.8734 7.16646L35.8129 24.1257L34.1369 40.6258L21.9754 45.8481L22.6381 8.32095ZM21.3233 13.8854L20.727 47.618L29.8418 43.7041L18.9653 51.3234L12.6667 57.9143L21.3233 13.8854ZM8.452 71.135L12.2212 60.075L18.1644 53.8557L15.3568 61.9477L7.54358 73.004L8.452 71.135ZM5.44849 78.0207L15.6882 63.5311L18.4825 72.6963L14.0918 74.4618L14.125 74.4212L5.44849 78.0207ZM3.62965 87.3884L12.6276 76.2699L18.7601 73.8046L20.6101 81.238L6.96054 86.2843L3.62965 87.3884ZM12.4808 96.3892L7.15245 100.473L7.76802 87.1914L21.0238 82.291L23.6462 87.1434L12.4808 96.3892ZM17.2912 109.202L14.2784 112.281L13.5001 97.0502L24.2591 88.141L29.373 95.8483L17.2912 109.202ZM26.238 128.164L18.448 109.673L29.6738 97.2643L30.6347 105.143L26.238 128.164ZM27.6052 127.472L31.3133 108.057L39.4015 142.162L27.6052 127.472ZM51.9839 150.191L39.5721 137.632L32.3738 107.281L42.9063 118.931L54.8075 141.136L51.9839 150.191ZM63.0703 154.023L44.0153 118.47L43.2689 111.118L54.0916 129.827L63.4807 116.227L63.0703 154.023ZM57.3455 114.076L51.9926 107.35L56.3673 110.061L56.8368 110.143L63.7157 108.763L64.4827 108.789L71.3596 110.25L71.8304 110.172L76.2417 107.511L70.7932 114.176L57.3455 114.076ZM63.6619 155.127L63.6467 155.099H63.6779L63.6619 155.127ZM64.2868 154.011L64.6939 116.533L73.8219 129.955L84.9123 111.371L84.059 118.715L64.2868 154.011ZM75.6295 150.347L72.8889 141.098L85.16 119.192L95.8612 107.659L88.2232 137.926L75.6295 150.347ZM88.3281 142.458L96.911 108.446L100.337 127.9L88.3281 142.458ZM101.694 128.607L97.6315 105.541L98.7073 97.6723L109.752 110.204L101.694 128.607ZM113.882 112.858L110.915 109.747L99.0274 96.2594L104.253 88.6087L114.882 97.636L113.882 112.858ZM115.91 96.988L104.878 87.6179L107.573 82.7956L120.756 87.8425L121.179 101.13L115.91 96.988ZM108.003 81.7488L109.961 74.3357L116.057 76.8687L124.894 88.0862L121.578 86.9453L108.003 81.7488Z" fill="black"/>
</svg>
