<svg width="182" height="193" viewBox="0 0 182 193" fill="none" xmlns="http://www.w3.org/2000/svg">
<path d="M13.0275 124.888L16.0945 141.43L16.4722 142.009L44.6431 161.175V178.753C42.8295 180.673 34.4206 189.597 33.4308 191.124L34.4383 192.474L52.4881 187.16L52.952 187.176L61.3077 179.124L141.049 162.601L141.706 161.4L135.167 144.353L134.994 144.07L106.934 113.222L102.976 95.3237L119.282 97.3131L131.285 106.48L136.612 119.297L137.812 119.77L149.872 114.305L159.606 111.768L160.27 111.018L161.265 103.584L164.077 100.51L164.29 99.703L162.907 93.6941L161.91 93.006L156.815 93.7017L139.227 70.0221L143.107 71.9444L143.986 71.8988L153.922 65.6339L153.392 63.9778C150.487 64.1412 147.025 64.216 146.25 64.0652C145.447 63.3125 141.556 58.3325 137.89 53.4983L144.456 52.3996L145.065 51.0324L140.076 43.1911L139.443 42.7844L134.203 42.0431L181.697 1.92707L180.648 0.473633L133.531 29.3841L133.388 29.4005L133.205 29.583L127.154 33.2971L128.778 23.2104L127.202 22.4919L121.277 29.5843H105.18L104.638 29.7668L100.917 32.5849V29.4588L100.753 28.9431L90.4292 14.2401L88.8336 14.4974L84.0595 30.3509L84.1342 31.0466L86.5879 35.4589L77.6669 33.0677L76.5605 33.7267L75.2297 39.306L62.1645 31.7296L61.4357 31.6523L37.3457 39.4935L37.2747 41.1751L51.8988 47.3462L29.9062 47.625L24.3108 36.8642L22.643 37.0618C20.8763 44.1668 16.7662 60.8035 16.7662 61.8261C16.7662 62.4001 17.1248 62.8956 19.3478 64.4808C20.5303 65.3235 22.174 66.4196 24.2348 67.74C26.2524 69.0312 28.284 70.2908 29.6502 71.1297L16.007 75.6344L15.495 76.0678L0.697266 104.024L0.726415 104.915L13.0275 124.888ZM17.7928 140.734L15.0324 125.846L63.8868 140.612L70.1222 166.909L45.9295 159.878L17.7928 140.734ZM88.5992 64.6962L88.5852 64.7609L88.5738 64.7571L75.3666 100.893L62.1302 70.7989L92.8512 46.8849L98.0208 43.7842L88.5992 64.6962ZM92.5153 60.3777L108.114 65.6745C107.607 68.722 103.985 82.7078 101.393 92.4181L90.3164 79.7299V65.2589L92.5153 60.3777ZM61.603 68.9336L57.3916 49.4117L79.54 54.972L61.603 68.9336ZM73.866 101.942L47.6062 94.851L60.9072 72.4792L73.866 101.942ZM45.4568 94.9511L45.3301 95.4099V123.595L25.8291 104.224L32.5107 72.2498L59.4206 71.4654L45.4568 94.9511ZM47.1272 96.582L73.4567 103.692L47.1272 123.93V96.582ZM75.2652 104.568L97.9118 135.191L48.3426 125.261L75.2652 104.568ZM93.8701 136.213L64.907 138.975L49.8343 127.392L93.8701 136.213ZM97.799 137.642L71.8307 166.332L65.7524 140.698L97.799 137.642ZM36.7703 189.917C38.9692 187.439 42.6572 183.475 45.5303 180.429L50.5098 185.872L36.7703 189.917ZM52.369 185.243L46.4377 178.762V161.896L69.6102 168.629L52.369 185.243ZM63.7335 176.789L71.9751 168.847L71.9941 168.783L72.017 168.804L99.4567 138.488L104.79 168.282L63.7335 176.789ZM106.549 167.916L101.256 138.347L138.474 161.3L106.549 167.916ZM139.077 159.563L105.233 138.69L133.66 145.439L139.077 159.563ZM131.71 143.13L101.125 135.868L106.554 115.473L131.71 143.13ZM99.6303 134.494L77.8659 105.063L105.024 114.231L99.6303 134.494ZM104.889 112.29L76.6036 102.742L88.5206 70.1387V80.067L88.7424 80.6575L100.998 94.6964L104.889 112.29ZM102.96 93.5116C103.558 91.27 105.067 85.5918 106.518 79.9567C107.61 75.7219 108.455 72.3373 109.03 69.898C109.374 68.442 109.626 67.3066 109.778 66.5248C109.797 66.4297 109.814 66.341 109.829 66.2561L120.524 69.8878L131.771 94.7661L119.658 95.5492L102.96 93.5116ZM108.753 65.8912C108.753 65.8924 108.753 65.8912 108.753 65.8912V65.8912ZM117.982 49.9388H125.035L134.01 65.4312L116.29 56.6535L115.073 57.8282L119.513 67.6475L109.943 64.3985L109.971 42.4384H117.084V49.0416L117.982 49.9388ZM127.644 50.86L135.053 53.4945L135.3 64.0753L127.644 50.86ZM128.751 70.785L121.841 68.4382L117.745 59.3779L126.681 63.8041C126.939 65.3121 127.96 68.4635 128.751 70.785ZM137.915 117.753L132.85 105.569L132.567 105.2L122.084 97.194L132.754 96.5047L148.072 113.15L137.915 117.753ZM155.69 95.197L156.532 95.5518L161.34 94.8954L162.433 99.646L159.749 102.581L159.522 103.067L158.569 110.183L149.867 112.451L134.662 95.9243L151.226 89.1868L155.69 95.197ZM150.118 87.6966L133.586 94.4215L122.852 70.6785L129.909 73.0748L131.046 71.9267C130.151 69.3772 129.237 66.5666 128.757 64.8331L135.687 68.2658L150.118 87.6966ZM140.054 59.2702C144.761 65.3463 145.148 65.5376 145.43 65.677C145.907 65.9127 147.473 65.9938 150.099 65.9191L143.453 70.1096L137.165 66.9949L136.888 55.1456C137.734 56.2544 138.884 57.761 140.054 59.2702ZM171.47 8.21223L160.857 17.1762L155.863 17.7882L171.47 8.21223ZM152.554 20.002L158.351 19.2923L150.681 25.7714L152.554 20.002ZM150.27 21.2197L148.178 27.6645L137.778 28.8848L150.27 21.2197ZM134.305 31.1011L145.996 29.7287L133.238 40.5035L134.305 31.1011ZM138.783 44.5026L142.823 50.8512L136.133 51.9701V51.9713L125.857 48.3168L125.554 48.142H122.141L132.226 43.5725L138.783 44.5026ZM132.373 32.2022L131.256 42.0418L120.138 47.0801L126.623 35.7313L132.373 32.2022ZM122.495 30.9287L126.485 26.1528L125.094 34.7822L118.879 45.6596V41.6883L122.495 30.9287ZM100.917 34.8392L105.482 31.3811H120.448L117.335 40.6429H100.917V34.8392ZM108.174 42.4384L108.146 63.7889L93.2567 58.7329L100.599 42.4384H108.174ZM99.1196 29.7439V41.0319L96.5696 42.5614L91.4976 18.8894L99.1196 29.7439ZM85.8895 30.5055L89.5484 18.3584L94.9436 43.5371L92.7675 44.8423L89.2316 36.5233L89.0694 36.5917L89.1898 36.4371L85.8895 30.5055ZM78.0952 35.0407L87.7488 37.6283L91.2467 45.8585L81.924 53.1156L76.7658 40.6137L78.0952 35.0407ZM40.1934 40.4553L61.6119 33.4834L75.1106 41.3119L80.0343 53.2448L56.4955 47.3348L40.1934 40.4553ZM18.5975 61.6221C18.9448 59.6567 21.6798 48.422 23.8153 39.8015L28.5692 48.9441L29.3777 49.4281L55.4855 49.0961L59.9212 69.6547L32.0139 70.4682C26.0839 66.8783 19.7065 62.7511 18.5975 61.6221ZM16.9132 77.226L30.5767 72.7136L23.9699 104.333L24.2158 105.154L45.5949 126.39L45.6279 126.357L45.6811 126.464L60.1988 137.62L14.4659 123.798L2.52481 104.411L16.9132 77.226Z" fill="black"/>
</svg>
