<svg width="69" height="131" viewBox="0 0 69 131" fill="none" xmlns="http://www.w3.org/2000/svg">
<path d="M61.9552 116.852H57.7843L44.5716 101.002L41.4615 91.215L40.68 75.8607L44.5001 68.7531L47.5058 65.1824H55.8696L59.9169 61.5859L61.1023 54.9012L56.5457 50.5306L54.3132 46.6471L48.9798 42.0711L46.51 33.861L38.6949 41.7326L28.7004 45.3566L19.9078 51.9982L9.08063 54.1399L-14.8951 50.3169L-37.4647 47.4497L-53.4513 50.3031H-58.3175L-67.0826 41.4749L-70.7506 32.143L-71.1354 20.6988L-67.69 14.6717L-61.8903 12.7823L-57.3364 16.9694L-50.7333 15.8614L-53.1316 6.20118L-59.0293 0.718018L-73.4714 3.10555L-81.8206 12.3769L-84.3325 27.3505L-79.9985 45.0172L-70.5436 59.6983L-74.8648 70.7747L-73.6574 81.719L-75.4566 86.0676L-85.1652 94.6234L-92.6973 118.224L-86.3415 126.595L-80.615 121.352V115.177L-76.8728 105.567L-67.8787 103.061L-59.4205 99.3866L-61.4002 112.618L-48.291 130.718H-37.4006L-32.2513 126.051L-35.4383 121.966L-41.0613 121.547L-44.7293 118.908L-46.7987 112.655L-40.0994 106.294L-36.4387 97.3687L-17.3081 95.4223L-6.8345 96.8523L-11.0366 112.985V127.235L-2.98237 129.128L2.42435 127.831L2.16236 121.235L-1.36915 118.801L3.0647 108.195L9.37469 98.373L18.4274 97.0963L34.3563 110.564L52.2493 124.899L61.0299 128.216L68.3027 123.245L61.9552 116.852ZM-37.4693 95.16L-47.7129 86.5803L-55.6545 69.7272L-26.447 78.173L-37.3493 95.1481L-37.4693 95.16ZM-53.2635 118.907L-48.7444 114.051L-47.1376 118.907H-53.2635ZM-54.5442 118.18L-58.2672 113.04H-49.7613L-54.5442 118.18ZM-58.9377 111.603L-57.199 99.9791L-49.4517 111.603H-58.9377ZM-72.9712 88.6101L-59.928 97.1008L-68.0409 100.626L-72.9712 88.6101ZM-68.0152 59.5047L-59.3655 52.8035L-57.8577 67.059L-68.0427 59.5763L-68.0152 59.5047ZM52.7999 48.6045L53.9578 50.6187L49.0008 50.8838L52.7999 48.6045ZM19.3985 94.9142L18.4952 85.209L38.1196 76.965L30.8688 93.0128L19.5258 95.0233L19.3985 94.9142ZM38.574 79.4314L39.1621 90.9729L32.624 92.6009L38.574 79.4314ZM18.64 83.5901L21.0172 68.4257L37.6863 75.5892L18.64 83.5901ZM7.98408 56.2926L2.4326 71.5855L-12.7753 60.4513L7.90712 56.2807L7.98408 56.2926ZM-37.101 62.7481L-27.1313 76.4798L-54.5552 68.5495L-37.101 62.7481ZM-56.02 67.5213L-52.8659 52.6072L-38.4962 61.6969L-56.02 67.5213ZM-14.3088 61.1071L0.999847 72.3156L-23.8828 76.7614L-14.3088 61.1071ZM9.37561 56.6448L19.1392 67.0471L3.9359 71.6277L9.37561 56.6448ZM45.0544 63.5506L22.4536 66.4234L33.5263 55.4011L45.0544 63.5506ZM35.2009 54.8287L45.495 52.6311L46.1637 62.5784L35.2009 54.8287ZM47.0239 54.0959L53.6701 62.881H47.6148L47.0239 54.0959ZM34.7548 53.4538L39.4452 44.077L44.9005 51.2882L34.7548 53.4538ZM33.5383 52.6898L31.325 46.8489L37.5974 44.5751L33.5383 52.6898ZM21.1601 65.6896L21.1015 53.9702L21.2123 53.8867L31.8746 55.0241L21.1601 65.6896ZM19.7319 65.585L10.8588 56.1312L19.677 54.3866L19.7319 65.585ZM-13.7986 59.192V52.82L3.84704 55.6341L-13.7986 59.192ZM-36.1171 60.7778V49.9381L-17.7817 52.2669L-36.1171 60.7778ZM-37.5453 60.6008L-50.8643 52.1761L-37.5453 49.7987V60.6008ZM-56.7419 64.0331L-57.9511 52.6017H-54.3243L-56.7419 64.0331ZM-52.0524 85.497L-71.3965 81.3842L-72.3629 72.6265L-52.0524 85.497ZM-71.6319 82.8041L-49.6734 87.4727L-57.6781 96.124L-58.3505 96.4157L-73.2506 86.716L-71.6319 82.8041ZM-48.2278 88.0185L-39.0807 95.6801L-56.2481 96.6872L-48.2278 88.0185ZM-25.4109 79.2067L-18.5833 93.2384L-35.5299 94.9628L-25.4109 79.2067ZM-24.2667 78.2904L0.7864 73.8134L-17.1038 93.0128L-24.2667 78.2904ZM4.28951 73.0228L19.5735 68.4183L17.2219 83.4168L4.28951 73.0228ZM30.8221 94.4803L33.7425 107.043L20.954 96.2295L30.8221 94.4803ZM52.9996 122.457L46.5741 106.982L56.073 118.378L52.9996 122.457ZM42.3904 101.689L35.5005 108.297L32.2182 94.1822L39.4342 92.3854L42.3904 101.689ZM58.638 55.7129L57.809 60.3908L55.2815 62.6371L47.5388 52.4018L54.7832 52.0147L58.638 55.7129ZM51.8123 47.523L46.3332 50.8104L40.7625 43.446H47.0606L51.8123 47.523ZM46.5741 42.0078H41.6502L45.429 38.2022L46.5741 42.0078ZM29.7961 47.4029L29.982 47.3359L29.7961 47.4029ZM-60.212 51.646L-68.443 58.0234L-67.493 44.3128L-60.212 51.646ZM-62.0753 10.325L-70.4071 4.93083L-60.4392 3.28258L-62.0753 10.325ZM-69.6193 12.9153L-78.6821 12.3163L-72.8879 5.88199L-69.6193 12.9153ZM-73.4769 20.3118L-81.7116 25.5335L-79.8812 14.6286L-73.4769 20.3118ZM-73.3789 21.949L-73.072 31.058L-81.6557 27.1983L-73.3789 21.949ZM-72.799 18.9965L-78.705 13.7564L-70.1268 14.3232L-72.799 18.9965ZM-68.2644 12.4392L-71.1977 6.12872L-63.7316 10.9625L-68.2644 12.4392ZM-56.6173 14.5149L-60.0553 11.3532L-54.994 8.18422L-53.5502 13.9994L-56.6173 14.5149ZM-81.6282 28.786L-73.0014 32.6649L-72.9511 32.7924L-78.356 42.1233L-81.6282 28.786ZM-77.3318 44.93L-68.836 43.0286L-69.7796 56.6558L-77.3318 44.93ZM-68.5823 60.9604L-58.825 68.1294L-72.1009 69.9822L-68.5823 60.9604ZM-74.611 88.379L-69.579 100.639L-82.4014 95.2444L-74.611 88.379ZM-84.3609 99.6195L-82.5984 113.969L-82.821 114.541L-89.8263 116.746L-84.3609 99.6195ZM-86.0373 123.208L-89.8052 118.246L-82.8997 116.072V120.334L-86.0373 123.208ZM-35.3678 125.781L-38.2773 128.418H-45.7031L-41.5385 123.818L-36.6127 124.186L-35.3678 125.781ZM-42.8247 123.105L-46.4927 127.156L-45.3091 121.317L-42.8247 123.105ZM-15.4613 93.3521L0.959541 75.7295L-5.7352 94.6803L-15.4613 93.3521ZM-4.84843 98.2886L0.693878 107.934L0.629753 108.087L-8.51736 112.374L-4.84843 98.2886ZM-4.18519 119.607L-8.75278 124.169V115.583L-4.01022 119.189L-4.18519 119.607ZM-0.0747147 122.481L0.0663605 126.031L-2.98786 126.764L-8.11611 125.559L-3.00894 120.459L-0.0747147 122.481ZM1.47897 106.428L-4.08717 96.7422L6.98555 97.8576L1.47897 106.428ZM8.02347 96.2405L7.85674 96.4991L-2.79366 95.4269L17.1193 85.8419L17.9566 94.8399L8.02347 96.2405ZM60.7249 125.644L54.2372 123.193L57.2813 119.152H61.0089L64.7337 122.903L60.7249 125.644Z" fill="black"/>
</svg>
