<svg width="271" height="295" viewBox="0 0 271 295" fill="none" xmlns="http://www.w3.org/2000/svg">
<path d="M270.896 84.2023H168.729L139.667 69.4156L138.927 69.2994L114.632 73.1674L113.867 73.6166L103.78 86.3236L103.509 87.1024V104.397L89.8374 108.322C64.3548 72.0156 16.7566 4.02657 15.0862 0.979046C14.8932 0.482978 14.483 0.132608 13.972 0.032007C13.0403 -0.153585 11.8878 0.391049 8.7555 3.71783C7.10766 5.46794 5.64754 7.21806 5.5867 7.29264L5.30858 7.924L0 47.1515L0.00521471 47.5193L2.12934 60.7795L2.16758 60.946L12.2546 94.0959L12.3102 94.245L28.2359 129.606L28.2603 129.657L43.9774 160.736L36.1241 192.883L36.0876 193.181V240.698L36.1501 241.088L53.6681 294.681L55.8374 295L66.4546 279.53L66.644 279.091L70.7984 260.171L78.4345 253.812L78.8812 252.853V208.256L120.748 183.201L121.178 182.769L140.165 150.551L140.291 150.254L150.411 114.28L169.509 95.4835L271 86.6809L270.896 84.2023ZM160.135 82.6083L156.707 88.4761H141.566L140.488 72.6123L160.135 82.6083ZM141.802 96.9405L147.364 111.868L129.386 107.507C129.188 104.338 128.482 94.6977 128.205 90.9582H139.572L141.802 96.9405ZM137.192 147.42L106.199 130.097C108.32 128.248 112.653 124.46 116.945 120.656C120.456 117.545 123.255 115.028 125.264 113.179C126.219 112.301 126.999 111.568 127.599 110.986L137.192 147.42ZM137.987 71.9619L139.108 88.4761H127.475L117.093 75.2887L137.987 71.9619ZM103.463 106.988L102.933 126.63L91.3601 110.463L103.463 106.988ZM90.2841 113.189L102.422 130.148L87.7602 143.585L90.2841 113.189ZM66.3885 161.827L55.3855 181.395L47.1341 161.827H66.3885ZM48.0692 159.343L67.2716 138.201V159.343H48.0692ZM56.75 183.987L67.9338 164.097L75.6551 203.68L56.75 183.987ZM86.161 148.282L115.174 178.722L70.9201 160.253L86.161 148.282ZM69.7242 158.05V137.294L84.1603 146.712L69.7242 158.05ZM85.2293 144.455L70.3291 134.734L87.7932 113.564L85.2293 144.455ZM68.7056 132.829L51.3354 100.987L87.1605 110.461L68.7056 132.829ZM49.698 97.9864L31.4204 64.4827L84.0647 107.075L49.698 97.9864ZM46.5535 97.3585L15.3417 91.5531L32.4407 71.4884L46.5535 97.3585ZM50.8452 56.9463C63.5987 75.1898 76.4338 93.4992 83.2807 103.264L28.6444 59.0589L31.4308 29.1179C36.4317 36.3057 42.7798 45.4084 50.8452 56.9463ZM26.2891 60.2106L30.1463 67.2822L6.52361 60.2349L27.1304 48.8635L26.1414 59.4925L26.2891 60.2106ZM7.68997 8.61954C9.88536 6.00737 12.192 3.62416 13.3149 2.77426C14.3683 4.42724 17.6431 9.27518 28.1577 24.4122H5.55193L7.68997 8.61954ZM2.45439 47.3042L5.05827 28.0668L26.4125 46.4335L4.27085 58.6513L2.45439 47.3042ZM5.18169 62.4256L30.4922 69.9759L13.5339 89.8741L5.18169 62.4256ZM30.4539 128.552L14.8915 93.9953L46.9533 99.9585L30.5913 128.819L30.4539 128.552ZM48.8584 101.584L66.3034 133.563L32.5416 130.364L48.8584 101.584ZM32.6372 132.867L65.9209 136.019L45.5662 158.432L32.6372 132.867ZM45.587 164.482L53.6455 183.591L39.1382 190.879L45.587 164.482ZM38.5402 197.559L51.8829 219.461L38.5402 237.045V197.559ZM38.681 240.934L52.2132 223.1L53.4456 286.1L38.681 240.934ZM52.354 215.506L39.0617 193.689L53.8906 186.24L52.354 215.506ZM68.9177 258.525L68.4987 259.215L64.3044 278.314L55.9817 290.44L54.6711 223.414L75.9819 252.643L68.9177 258.525ZM76.4338 249.082L55.2308 220L76.4338 209.534V249.082ZM78.033 203.054L70.1431 162.614L90.0685 170.929L78.033 203.054ZM80.0459 204.677L91.626 173.769L98.8571 193.419L80.0459 204.677ZM101.004 192.137L93.7675 172.475L117.388 182.332L101.004 192.137ZM119.898 180.103L88.0418 146.679L104.235 131.837L137.415 150.381L119.898 180.103ZM139.156 145.245L129.926 110.194L147.797 114.528L139.156 145.245ZM149.814 111.411L143.938 94.918C144.166 94.9284 150.975 94.7342 150.975 94.7342L150.186 90.9599H156.381L158.503 102.857L149.814 111.411ZM168.121 93.3917L168.115 93.3934L160.622 100.77L158.692 89.9521L162.331 83.7253L167.886 86.5508L172.597 89.0173L168.121 93.3917Z" fill="black"/>
</svg>
