<svg width="194" height="211" viewBox="0 0 194 211" fill="none" xmlns="http://www.w3.org/2000/svg">
<path d="M193.623 60.4142H120.862L100.165 49.8881L99.6378 49.8054L82.3353 52.5589L81.7906 52.8787L74.6068 61.9243L74.4137 62.4787V74.7902L64.6774 77.5844C46.5293 51.739 12.6309 3.34 11.4413 1.17058C11.3039 0.817448 11.0117 0.568032 10.6478 0.496417C9.98424 0.364301 9.16349 0.752007 6.93274 3.12022C5.75917 4.36607 4.71931 5.61191 4.67598 5.665L4.47791 6.11445L0.697266 34.0391L0.700979 34.3009L2.21373 43.7404L2.24097 43.859L9.4247 67.4571L9.46431 67.5633L20.8063 92.7358L20.8236 92.7716L32.017 114.896L26.424 137.78L26.398 137.992V171.818L26.4426 172.096L38.9185 210.246L40.4634 210.474L48.0247 199.461L48.1596 199.149L51.1183 185.68L56.5565 181.154L56.8747 180.471V148.723L86.6915 130.888L86.9973 130.58L100.519 107.645L100.61 107.434L107.817 81.8257L121.418 68.4449L193.697 62.1787L193.623 60.4142ZM114.742 59.2795L112.301 63.4566H101.517L100.75 52.1638L114.742 59.2795ZM101.685 69.4821L105.647 80.1082L92.8428 77.0041C92.7017 74.7482 92.1991 67.8856 92.0023 65.2235H100.097L101.685 69.4821ZM98.4024 105.416L76.33 93.0852C77.8403 91.769 80.9265 89.0723 83.9829 86.3646C86.4836 84.1495 88.4766 82.3579 89.9077 81.0417C90.5873 80.4169 91.1432 79.8946 91.5702 79.481L98.4024 105.416ZM98.9681 51.7007L99.7666 63.4566H91.4823L84.0882 54.069L98.9681 51.7007ZM74.3815 76.6349L74.004 90.617L65.7618 79.1081L74.3815 76.6349ZM64.9955 81.0491L73.64 93.121L63.198 102.687L64.9955 81.0491ZM47.9777 115.672L40.1415 129.602L34.2651 115.672H47.9777ZM34.9311 113.904L48.6065 98.8539V113.904H34.9311ZM41.1133 131.447L49.0782 117.288L54.5771 145.466L41.1133 131.447ZM62.0591 106.03L82.7215 127.7L51.2049 114.552L62.0591 106.03ZM50.3532 112.984V98.2081L60.6343 104.913L50.3532 112.984ZM61.3956 103.306L50.784 96.3857L63.2216 81.3158L61.3956 103.306ZM49.6278 95.0299L37.2571 72.3627L62.771 79.1068L49.6278 95.0299ZM36.091 70.2266L23.0741 46.3766L60.5662 76.6966L36.091 70.2266ZM33.8516 69.7797L11.6233 65.647L23.8008 51.3637L33.8516 69.7797ZM36.9081 41.0117C45.9908 53.9986 55.1317 67.0324 60.0079 73.9839L21.0972 42.5156L23.0816 21.2016C26.6431 26.3184 31.164 32.7982 36.9081 41.0117ZM19.4198 43.3354L22.1667 48.3694L5.34323 43.3527L20.0189 35.2578L19.3145 42.8242L19.4198 43.3354ZM6.17388 6.60957C7.73739 4.75007 9.38013 3.05355 10.1798 2.44853C10.93 3.62523 13.2623 7.0763 20.7505 17.8518H4.65122L6.17388 6.60957ZM2.44523 34.1478L4.29965 20.4534L19.5077 33.528L3.73887 42.2254L2.44523 34.1478ZM4.38754 44.9122L22.4131 50.287L10.3358 64.4518L4.38754 44.9122ZM22.3859 91.9851L11.3026 67.3855L34.1363 71.6305L22.4837 92.1752L22.3859 91.9851ZM35.4931 72.7875L47.917 95.5522L23.8726 93.2754L35.4931 72.7875ZM23.9407 95.0571L47.6446 97.3006L33.1485 113.256L23.9407 95.0571ZM33.1633 117.563L38.9024 131.166L28.5706 136.354L33.1633 117.563ZM28.1447 141.109L37.6471 156.7L28.1447 169.218V141.109ZM28.245 171.986L37.8823 159.29L38.76 204.138L28.245 171.986ZM37.9826 153.885L28.5161 138.354L39.0769 133.051L37.9826 153.885ZM49.7788 184.508L49.4805 185L46.4934 198.596L40.5661 207.228L39.6327 159.514L54.8098 180.321L49.7788 184.508ZM55.1317 177.787L40.0314 157.084L55.1317 149.633V177.787ZM56.2706 145.021L50.6516 116.233L64.842 122.152L56.2706 145.021ZM57.7041 146.176L65.9512 124.173L71.101 138.162L57.7041 146.176ZM72.6299 137.249L67.4763 123.252L84.2986 130.269L72.6299 137.249ZM86.0862 128.683L63.3986 104.889L74.9312 94.3237L98.5608 107.524L86.0862 128.683ZM99.8013 103.868L93.2278 78.9167L105.955 82.0023L99.8013 103.868ZM107.391 79.7835L103.207 68.0424C103.369 68.0498 108.218 67.9115 108.218 67.9115L107.656 65.2247H112.068L113.579 73.6938L107.391 79.7835ZM120.429 66.9558L120.425 66.9571L115.088 72.2084L113.714 64.5074L116.305 60.0747L120.262 62.0861L123.617 63.8418L120.429 66.9558Z" fill="black"/>
</svg>
